G04 PROTEUS GERBER X2 FILE*
%TF.GenerationSoftware,Labcenter,Proteus,8.17-SP2-Build37159*%
%TF.CreationDate,2024-05-15T17:06:41+00:00*%
%TF.FileFunction,Plated,1,2,PTH*%
%TF.FilePolarity,Positive*%
%TF.Part,Single*%
%TF.SameCoordinates,{8e856c1c-122a-437a-bfc2-24db689c5e76}*%
%FSLAX45Y45*%
%MOMM*%
G01*
%TA.AperFunction,ViaDrill*%
%ADD93C,0.381000*%
%TA.AperFunction,ComponentDrill*%
%ADD94C,1.270000*%
%TA.AperFunction,ComponentDrill*%
%ADD95C,0.762000*%
%TA.AperFunction,ComponentDrill*%
%ADD96C,1.016000*%
%TA.AperFunction,OtherDrill,Unknown*%
%ADD97C,1.016000*%
%TD.AperFunction*%
D93*
X-152400Y-1447800D03*
X-676677Y+1629511D03*
X+914400Y+1295400D03*
X+1802868Y+79811D03*
X+204496Y-120455D03*
X+835116Y-647918D03*
X-837403Y-890804D03*
X-533400Y-1905000D03*
X-229533Y+200000D03*
X+416237Y+1426925D03*
X+210000Y+1080000D03*
X+362985Y+627984D03*
X+200000Y+70000D03*
D94*
X+0Y+1169000D03*
X+0Y+915000D03*
X+0Y+661000D03*
X+0Y+407000D03*
X+0Y-101000D03*
X+0Y+153000D03*
X+1524000Y-609000D03*
X+0Y-609000D03*
X+1524000Y-355000D03*
X+1524000Y-101000D03*
X+1524000Y+153000D03*
X+1524000Y+407000D03*
X+1524000Y+661000D03*
X+1524000Y+915000D03*
X+1524000Y+1169000D03*
X+0Y-355000D03*
D95*
X-1244000Y-1037000D03*
X-1244000Y-529000D03*
X+680000Y-1778000D03*
X+680000Y-1270000D03*
D96*
X-1708000Y+730000D03*
X-1454000Y+730000D03*
X-1200000Y+730000D03*
D95*
X-1057000Y+1332000D03*
X-549000Y+1332000D03*
X-1560000Y-1370000D03*
X-1560000Y-1878000D03*
D96*
X-1700000Y+1590000D03*
X-1700000Y+1844000D03*
X-1700000Y+2098000D03*
D97*
X-480000Y-422000D03*
X-480000Y-168000D03*
X-480000Y+86000D03*
X-480000Y+340000D03*
X-480000Y+594000D03*
M02*
