G04 PROTEUS GERBER X2 FILE*
%TF.GenerationSoftware,Labcenter,Proteus,8.17-SP2-Build37159*%
%TF.CreationDate,2024-05-15T17:06:41+00:00*%
%TF.FileFunction,Paste,Top*%
%TF.FilePolarity,Positive*%
%TF.Part,Single*%
%TF.SameCoordinates,{8e856c1c-122a-437a-bfc2-24db689c5e76}*%
%FSLAX45Y45*%
%MOMM*%
G01*
%TA.AperFunction,Material*%
%ADD54R,1.803400X1.143000*%
%ADD55R,1.143000X1.803400*%
%ADD56R,1.447800X0.939800*%
%ADD57R,2.108200X2.108200*%
%ADD58R,3.403600X1.397000*%
%ADD59R,0.939800X1.447800*%
%TA.AperFunction,Profile*%
%ADD21C,0.150000*%
%TD.AperFunction*%
D54*
X-1590000Y-920000D03*
X-1590000Y-620000D03*
X+1080000Y-1240000D03*
X+1080000Y-1540000D03*
D55*
X-1715000Y+1122000D03*
X-1415000Y+1122000D03*
D56*
X+1791000Y-1339000D03*
X+1791000Y-1539000D03*
X-1187000Y-1861000D03*
X-1187000Y-1661000D03*
X+1436000Y-1339000D03*
X+1436000Y-1539000D03*
X+254000Y-1843000D03*
X+254000Y-1643000D03*
D57*
X+130000Y-1170000D03*
X-320000Y-1170000D03*
D58*
X-786000Y-1520000D03*
X-786000Y-1110000D03*
D56*
X+440000Y+1270000D03*
X+440000Y+1070000D03*
X+1070000Y+1271000D03*
X+1070000Y+1071000D03*
X+1800000Y-160000D03*
X+1800000Y-360000D03*
D59*
X-1290000Y+1630000D03*
X-1090000Y+1630000D03*
D56*
X-780000Y+1800000D03*
X-780000Y+2000000D03*
D59*
X-1140000Y+2010000D03*
X-1340000Y+2010000D03*
D56*
X-890000Y-1920000D03*
X-890000Y-1720000D03*
D21*
X-2010000Y-2260000D02*
X+2040000Y-2260000D01*
X+2040000Y+2360000D01*
X-2010000Y+2360000D01*
X-2010000Y-2260000D01*
X+1790312Y-1930000D02*
X+1789777Y-1916917D01*
X+1785433Y-1890749D01*
X+1776357Y-1864581D01*
X+1761574Y-1838413D01*
X+1738960Y-1812409D01*
X+1712792Y-1792721D01*
X+1686624Y-1780021D01*
X+1660456Y-1772608D01*
X+1634288Y-1769745D01*
X+1630000Y-1769688D01*
X+1469688Y-1930000D02*
X+1470223Y-1916917D01*
X+1474567Y-1890749D01*
X+1483643Y-1864581D01*
X+1498426Y-1838413D01*
X+1521040Y-1812409D01*
X+1547208Y-1792721D01*
X+1573376Y-1780021D01*
X+1599544Y-1772608D01*
X+1625712Y-1769745D01*
X+1630000Y-1769688D01*
X+1469688Y-1930000D02*
X+1470223Y-1943083D01*
X+1474567Y-1969251D01*
X+1483643Y-1995419D01*
X+1498426Y-2021587D01*
X+1521040Y-2047591D01*
X+1547208Y-2067279D01*
X+1573376Y-2079979D01*
X+1599544Y-2087392D01*
X+1625712Y-2090255D01*
X+1630000Y-2090312D01*
X+1790312Y-1930000D02*
X+1789777Y-1943083D01*
X+1785433Y-1969251D01*
X+1776357Y-1995419D01*
X+1761574Y-2021587D01*
X+1738960Y-2047591D01*
X+1712792Y-2067279D01*
X+1686624Y-2079979D01*
X+1660456Y-2087392D01*
X+1634288Y-2090255D01*
X+1630000Y-2090312D01*
M02*
