G04 PROTEUS GERBER X2 FILE*
%TF.GenerationSoftware,Labcenter,Proteus,8.17-SP2-Build37159*%
%TF.CreationDate,2024-05-15T17:06:41+00:00*%
%TF.FileFunction,Soldermask,Top*%
%TF.FilePolarity,Negative*%
%TF.Part,Single*%
%TF.SameCoordinates,{8e856c1c-122a-437a-bfc2-24db689c5e76}*%
%FSLAX45Y45*%
%MOMM*%
G01*
%TA.AperFunction,Material*%
%ADD35C,1.016000*%
%TA.AperFunction,Material*%
%ADD36C,2.010000*%
%TA.AperFunction,Material*%
%ADD37C,2.032000*%
%AMPPAD032*
4,1,4,
-0.901700,-0.571500,
-0.901700,0.571500,
0.901700,0.571500,
0.901700,-0.571500,
-0.901700,-0.571500,
0*%
%ADD38PPAD032*%
%AMPPAD033*
4,1,36,
-1.016000,1.143000,
1.016000,1.143000,
1.041590,1.140420,
1.065430,1.133020,
1.087000,1.121310,
1.105800,1.105800,
1.121310,1.087000,
1.133020,1.065430,
1.140420,1.041590,
1.143000,1.016000,
1.143000,-1.016000,
1.140420,-1.041590,
1.133020,-1.065430,
1.121310,-1.087000,
1.105800,-1.105800,
1.087000,-1.121310,
1.065430,-1.133020,
1.041590,-1.140420,
1.016000,-1.143000,
-1.016000,-1.143000,
-1.041590,-1.140420,
-1.065430,-1.133020,
-1.087000,-1.121310,
-1.105800,-1.105800,
-1.121310,-1.087000,
-1.133020,-1.065430,
-1.140420,-1.041590,
-1.143000,-1.016000,
-1.143000,1.016000,
-1.140420,1.041590,
-1.133020,1.065430,
-1.121310,1.087000,
-1.105800,1.105800,
-1.087000,1.121310,
-1.065430,1.133020,
-1.041590,1.140420,
-1.016000,1.143000,
0*%
%TA.AperFunction,Material*%
%ADD39PPAD033*%
%AMPPAD034*
4,1,4,
-0.571500,0.901700,
0.571500,0.901700,
0.571500,-0.901700,
-0.571500,-0.901700,
-0.571500,0.901700,
0*%
%TA.AperFunction,Material*%
%ADD40PPAD034*%
%AMPPAD035*
4,1,4,
0.723900,0.469900,
0.723900,-0.469900,
-0.723900,-0.469900,
-0.723900,0.469900,
0.723900,0.469900,
0*%
%ADD41PPAD035*%
%AMPPAD036*
4,1,4,
-1.054100,-1.054100,
-1.054100,1.054100,
1.054100,1.054100,
1.054100,-1.054100,
-1.054100,-1.054100,
0*%
%ADD42PPAD036*%
%AMPPAD037*
4,1,4,
-1.701800,-0.698500,
-1.701800,0.698500,
1.701800,0.698500,
1.701800,-0.698500,
-1.701800,-0.698500,
0*%
%ADD43PPAD037*%
%AMPPAD038*
4,1,4,
-0.469900,0.723900,
0.469900,0.723900,
0.469900,-0.723900,
-0.469900,-0.723900,
-0.469900,0.723900,
0*%
%ADD44PPAD038*%
%TA.AperFunction,Profile*%
%ADD21C,0.150000*%
%TD.AperFunction*%
D35*
X-152400Y-1447800D03*
X-676677Y+1629511D03*
X+914400Y+1295400D03*
X+1802868Y+79811D03*
X+204496Y-120455D03*
X+835116Y-647918D03*
X-837403Y-890804D03*
X-533400Y-1905000D03*
X-229533Y+200000D03*
X+416237Y+1426925D03*
X+210000Y+1080000D03*
X+362985Y+627984D03*
X+200000Y+70000D03*
D36*
X+0Y+1169000D03*
X+0Y+915000D03*
X+0Y+661000D03*
X+0Y+407000D03*
X+0Y-101000D03*
X+0Y+153000D03*
X+1524000Y-609000D03*
X+0Y-609000D03*
X+1524000Y-355000D03*
X+1524000Y-101000D03*
X+1524000Y+153000D03*
X+1524000Y+407000D03*
X+1524000Y+661000D03*
X+1524000Y+915000D03*
X+1524000Y+1169000D03*
X+0Y-355000D03*
D37*
X-1244000Y-1037000D03*
X-1244000Y-529000D03*
X+680000Y-1778000D03*
X+680000Y-1270000D03*
D38*
X-1590000Y-920000D03*
X-1590000Y-620000D03*
X+1080000Y-1240000D03*
X+1080000Y-1540000D03*
D39*
X-1708000Y+730000D03*
X-1454000Y+730000D03*
X-1200000Y+730000D03*
D37*
X-1057000Y+1332000D03*
X-549000Y+1332000D03*
D40*
X-1715000Y+1122000D03*
X-1415000Y+1122000D03*
D37*
X-1560000Y-1370000D03*
X-1560000Y-1878000D03*
D41*
X+1791000Y-1339000D03*
X+1791000Y-1539000D03*
X-1187000Y-1861000D03*
X-1187000Y-1661000D03*
X+1436000Y-1339000D03*
X+1436000Y-1539000D03*
X+254000Y-1843000D03*
X+254000Y-1643000D03*
D42*
X+130000Y-1170000D03*
X-320000Y-1170000D03*
D43*
X-786000Y-1520000D03*
X-786000Y-1110000D03*
D41*
X+440000Y+1270000D03*
X+440000Y+1070000D03*
X+1070000Y+1271000D03*
X+1070000Y+1071000D03*
X+1800000Y-160000D03*
X+1800000Y-360000D03*
D44*
X-1290000Y+1630000D03*
X-1090000Y+1630000D03*
D41*
X-780000Y+1800000D03*
X-780000Y+2000000D03*
D44*
X-1140000Y+2010000D03*
X-1340000Y+2010000D03*
D39*
X-1700000Y+1590000D03*
X-1700000Y+1844000D03*
X-1700000Y+2098000D03*
X-480000Y-422000D03*
X-480000Y-168000D03*
X-480000Y+86000D03*
X-480000Y+340000D03*
X-480000Y+594000D03*
D41*
X-890000Y-1920000D03*
X-890000Y-1720000D03*
D21*
X-2010000Y-2260000D02*
X+2040000Y-2260000D01*
X+2040000Y+2360000D01*
X-2010000Y+2360000D01*
X-2010000Y-2260000D01*
X+1790312Y-1930000D02*
X+1789777Y-1916917D01*
X+1785433Y-1890749D01*
X+1776357Y-1864581D01*
X+1761574Y-1838413D01*
X+1738960Y-1812409D01*
X+1712792Y-1792721D01*
X+1686624Y-1780021D01*
X+1660456Y-1772608D01*
X+1634288Y-1769745D01*
X+1630000Y-1769688D01*
X+1469688Y-1930000D02*
X+1470223Y-1916917D01*
X+1474567Y-1890749D01*
X+1483643Y-1864581D01*
X+1498426Y-1838413D01*
X+1521040Y-1812409D01*
X+1547208Y-1792721D01*
X+1573376Y-1780021D01*
X+1599544Y-1772608D01*
X+1625712Y-1769745D01*
X+1630000Y-1769688D01*
X+1469688Y-1930000D02*
X+1470223Y-1943083D01*
X+1474567Y-1969251D01*
X+1483643Y-1995419D01*
X+1498426Y-2021587D01*
X+1521040Y-2047591D01*
X+1547208Y-2067279D01*
X+1573376Y-2079979D01*
X+1599544Y-2087392D01*
X+1625712Y-2090255D01*
X+1630000Y-2090312D01*
X+1790312Y-1930000D02*
X+1789777Y-1943083D01*
X+1785433Y-1969251D01*
X+1776357Y-1995419D01*
X+1761574Y-2021587D01*
X+1738960Y-2047591D01*
X+1712792Y-2067279D01*
X+1686624Y-2079979D01*
X+1660456Y-2087392D01*
X+1634288Y-2090255D01*
X+1630000Y-2090312D01*
M02*
