G04 PROTEUS GERBER X2 FILE*
%TF.GenerationSoftware,Labcenter,Proteus,8.17-SP2-Build37159*%
%TF.CreationDate,2024-05-15T17:06:41+00:00*%
%TF.FileFunction,Soldermask,Bot*%
%TF.FilePolarity,Negative*%
%TF.Part,Single*%
%TF.SameCoordinates,{8e856c1c-122a-437a-bfc2-24db689c5e76}*%
%FSLAX45Y45*%
%MOMM*%
G01*
%TA.AperFunction,Material*%
%ADD35C,1.016000*%
%TA.AperFunction,Material*%
%ADD36C,2.010000*%
%AMPPAD039*
4,1,4,
0.250000,-0.250000,
0.250000,0.250000,
-0.250000,0.250000,
-0.250000,-0.250000,
0.250000,-0.250000,
0*%
%TA.AperFunction,Material*%
%ADD45PPAD039*%
%AMPPAD040*
4,1,4,
0.400050,-0.750000,
0.400050,0.750000,
-0.400050,0.750000,
-0.400050,-0.750000,
0.400050,-0.750000,
0*%
%ADD46PPAD040*%
%AMPPAD041*
4,1,4,
0.750000,-0.400050,
0.750000,0.400050,
-0.750000,0.400050,
-0.750000,-0.400050,
0.750000,-0.400050,
0*%
%ADD47PPAD041*%
%AMPPAD042*
4,1,4,
2.400000,-2.400000,
2.400000,2.400000,
-2.400000,2.400000,
-2.400000,-2.400000,
2.400000,-2.400000,
0*%
%ADD48PPAD042*%
%TA.AperFunction,Material*%
%ADD37C,2.032000*%
%AMPPAD043*
4,1,36,
-1.143000,0.762000,
-1.143000,-0.762000,
-1.140420,-0.787590,
-1.133020,-0.811430,
-1.121310,-0.833000,
-1.105800,-0.851800,
-1.087000,-0.867310,
-1.065430,-0.879020,
-1.041590,-0.886420,
-1.016000,-0.889000,
1.016000,-0.889000,
1.041590,-0.886420,
1.065430,-0.879020,
1.087000,-0.867310,
1.105800,-0.851800,
1.121310,-0.833000,
1.133020,-0.811430,
1.140420,-0.787590,
1.143000,-0.762000,
1.143000,0.762000,
1.140420,0.787590,
1.133020,0.811430,
1.121310,0.833000,
1.105800,0.851800,
1.087000,0.867310,
1.065430,0.879020,
1.041590,0.886420,
1.016000,0.889000,
-1.016000,0.889000,
-1.041590,0.886420,
-1.065430,0.879020,
-1.087000,0.867310,
-1.105800,0.851800,
-1.121310,0.833000,
-1.133020,0.811430,
-1.140420,0.787590,
-1.143000,0.762000,
0*%
%TA.AperFunction,Material*%
%ADD49PPAD043*%
%AMPPAD044*
4,1,36,
-1.016000,-2.032000,
1.016000,-2.032000,
1.041590,-2.029420,
1.065430,-2.022020,
1.087000,-2.010310,
1.105800,-1.994800,
1.121310,-1.976000,
1.133020,-1.954430,
1.140420,-1.930590,
1.143000,-1.905000,
1.143000,1.905000,
1.140420,1.930590,
1.133020,1.954430,
1.121310,1.976000,
1.105800,1.994800,
1.087000,2.010310,
1.065430,2.022020,
1.041590,2.029420,
1.016000,2.032000,
-1.016000,2.032000,
-1.041590,2.029420,
-1.065430,2.022020,
-1.087000,2.010310,
-1.105800,1.994800,
-1.121310,1.976000,
-1.133020,1.954430,
-1.140420,1.930590,
-1.143000,1.905000,
-1.143000,-1.905000,
-1.140420,-1.930590,
-1.133020,-1.954430,
-1.121310,-1.976000,
-1.105800,-1.994800,
-1.087000,-2.010310,
-1.065430,-2.022020,
-1.041590,-2.029420,
-1.016000,-2.032000,
0*%
%ADD50PPAD044*%
%AMPPAD033*
4,1,36,
-1.016000,1.143000,
1.016000,1.143000,
1.041590,1.140420,
1.065430,1.133020,
1.087000,1.121310,
1.105800,1.105800,
1.121310,1.087000,
1.133020,1.065430,
1.140420,1.041590,
1.143000,1.016000,
1.143000,-1.016000,
1.140420,-1.041590,
1.133020,-1.065430,
1.121310,-1.087000,
1.105800,-1.105800,
1.087000,-1.121310,
1.065430,-1.133020,
1.041590,-1.140420,
1.016000,-1.143000,
-1.016000,-1.143000,
-1.041590,-1.140420,
-1.065430,-1.133020,
-1.087000,-1.121310,
-1.105800,-1.105800,
-1.121310,-1.087000,
-1.133020,-1.065430,
-1.140420,-1.041590,
-1.143000,-1.016000,
-1.143000,1.016000,
-1.140420,1.041590,
-1.133020,1.065430,
-1.121310,1.087000,
-1.105800,1.105800,
-1.087000,1.121310,
-1.065430,1.133020,
-1.041590,1.140420,
-1.016000,1.143000,
0*%
%TA.AperFunction,Material*%
%ADD39PPAD033*%
%AMPPAD045*
4,1,4,
0.635000,0.279400,
-0.635000,0.279400,
-0.635000,-0.279400,
0.635000,-0.279400,
0.635000,0.279400,
0*%
%TA.AperFunction,Material*%
%ADD51PPAD045*%
%AMPPAD046*
4,1,36,
-0.508000,-0.889000,
0.508000,-0.889000,
0.533590,-0.886420,
0.557430,-0.879020,
0.579000,-0.867310,
0.597800,-0.851800,
0.613310,-0.833000,
0.625020,-0.811430,
0.632420,-0.787590,
0.635000,-0.762000,
0.635000,0.762000,
0.632420,0.787590,
0.625020,0.811430,
0.613310,0.833000,
0.597800,0.851800,
0.579000,0.867310,
0.557430,0.879020,
0.533590,0.886420,
0.508000,0.889000,
-0.508000,0.889000,
-0.533590,0.886420,
-0.557430,0.879020,
-0.579000,0.867310,
-0.597800,0.851800,
-0.613310,0.833000,
-0.625020,0.811430,
-0.632420,0.787590,
-0.635000,0.762000,
-0.635000,-0.762000,
-0.632420,-0.787590,
-0.625020,-0.811430,
-0.613310,-0.833000,
-0.597800,-0.851800,
-0.579000,-0.867310,
-0.557430,-0.879020,
-0.533590,-0.886420,
-0.508000,-0.889000,
0*%
%TA.AperFunction,Material*%
%ADD52PPAD046*%
%TA.AperFunction,Profile*%
%ADD21C,0.150000*%
%TA.AperFunction,Material*%
%ADD53C,0.025400*%
%TD.AperFunction*%
%TA.AperFunction,Material*%
G36*
X+1088000Y-475000D02*
X+988000Y-475000D01*
X+988000Y-305000D01*
X+1060000Y-305000D01*
X+1088000Y-333000D01*
X+1088000Y-475000D01*
G37*
%TD.AperFunction*%
%TA.AperFunction,Material*%
G36*
X+303000Y-40000D02*
X+303000Y+60000D01*
X+473000Y+60000D01*
X+473000Y-40000D01*
X+303000Y-40000D01*
G37*
%TD.AperFunction*%
%TA.AperFunction,Material*%
G36*
X+738000Y-475000D02*
X+738000Y-305000D01*
X+838000Y-305000D01*
X+838000Y-475000D01*
X+738000Y-475000D01*
G37*
%TD.AperFunction*%
%TA.AperFunction,Material*%
G36*
X+738000Y+325000D02*
X+738000Y+495000D01*
X+838000Y+495000D01*
X+838000Y+325000D01*
X+738000Y+325000D01*
G37*
%TD.AperFunction*%
%TA.AperFunction,Material*%
G36*
X+1103000Y-40000D02*
X+1103000Y+60000D01*
X+1273000Y+60000D01*
X+1273000Y-40000D01*
X+1103000Y-40000D01*
G37*
%TD.AperFunction*%
%TA.AperFunction,Material*%
G36*
X+612994Y-475000D02*
X+612994Y-305000D01*
X+713000Y-305000D01*
X+713000Y-475000D01*
X+612994Y-475000D01*
G37*
%TD.AperFunction*%
%TA.AperFunction,Material*%
G36*
X+612994Y+325000D02*
X+612994Y+495000D01*
X+713000Y+495000D01*
X+713000Y+325000D01*
X+612994Y+325000D01*
G37*
%TD.AperFunction*%
%TA.AperFunction,Material*%
G36*
X+488000Y-475000D02*
X+488000Y-305000D01*
X+588000Y-305000D01*
X+588000Y-475000D01*
X+488000Y-475000D01*
G37*
%TD.AperFunction*%
%TA.AperFunction,Material*%
G36*
X+488000Y+325000D02*
X+488000Y+495000D01*
X+588000Y+495000D01*
X+588000Y+325000D01*
X+488000Y+325000D01*
G37*
%TD.AperFunction*%
%TA.AperFunction,Material*%
G36*
X+863000Y-475000D02*
X+863000Y-305000D01*
X+963006Y-305000D01*
X+963006Y-475000D01*
X+863000Y-475000D01*
G37*
%TD.AperFunction*%
%TA.AperFunction,Material*%
G36*
X+863000Y+325000D02*
X+863000Y+495000D01*
X+963006Y+495000D01*
X+963006Y+325000D01*
X+863000Y+325000D01*
G37*
%TD.AperFunction*%
%TA.AperFunction,Material*%
G36*
X+988000Y+325000D02*
X+988000Y+495000D01*
X+1088000Y+495000D01*
X+1088000Y+325000D01*
X+988000Y+325000D01*
G37*
%TD.AperFunction*%
%TA.AperFunction,Material*%
G36*
X+303000Y-165006D02*
X+303000Y-65000D01*
X+473000Y-65000D01*
X+473000Y-165006D01*
X+303000Y-165006D01*
G37*
%TD.AperFunction*%
%TA.AperFunction,Material*%
G36*
X+1103000Y-165006D02*
X+1103000Y-65000D01*
X+1273000Y-65000D01*
X+1273000Y-165006D01*
X+1103000Y-165006D01*
G37*
%TD.AperFunction*%
%TA.AperFunction,Material*%
G36*
X+303000Y-290000D02*
X+303000Y-190000D01*
X+473000Y-190000D01*
X+473000Y-290000D01*
X+303000Y-290000D01*
G37*
%TD.AperFunction*%
%TA.AperFunction,Material*%
G36*
X+1103000Y-290000D02*
X+1103000Y-190000D01*
X+1273000Y-190000D01*
X+1273000Y-290000D01*
X+1103000Y-290000D01*
G37*
%TD.AperFunction*%
%TA.AperFunction,Material*%
G36*
X+303000Y+85000D02*
X+303000Y+185006D01*
X+473000Y+185006D01*
X+473000Y+85000D01*
X+303000Y+85000D01*
G37*
%TD.AperFunction*%
%TA.AperFunction,Material*%
G36*
X+1103000Y+85000D02*
X+1103000Y+185006D01*
X+1273000Y+185006D01*
X+1273000Y+85000D01*
X+1103000Y+85000D01*
G37*
%TD.AperFunction*%
%TA.AperFunction,Material*%
G36*
X+303000Y+210000D02*
X+303000Y+310000D01*
X+473000Y+310000D01*
X+473000Y+210000D01*
X+303000Y+210000D01*
G37*
%TD.AperFunction*%
%TA.AperFunction,Material*%
G36*
X+1103000Y+210000D02*
X+1103000Y+310000D01*
X+1273000Y+310000D01*
X+1273000Y+210000D01*
X+1103000Y+210000D01*
G37*
%TD.AperFunction*%
%TA.AperFunction,Material*%
G36*
X+538000Y-240000D02*
X+538000Y+260000D01*
X+1038000Y+260000D01*
X+1038000Y-240000D01*
X+538000Y-240000D01*
G37*
%TD.AperFunction*%
D35*
X-152400Y-1447800D03*
X-676677Y+1629511D03*
X+914400Y+1295400D03*
X+1802868Y+79811D03*
X+204496Y-120455D03*
X+835116Y-647918D03*
X-837403Y-890804D03*
X-533400Y-1905000D03*
X-229533Y+200000D03*
X+416237Y+1426925D03*
X+210000Y+1080000D03*
X+362985Y+627984D03*
X+200000Y+70000D03*
D36*
X+0Y+1169000D03*
X+0Y+915000D03*
X+0Y+661000D03*
X+0Y+407000D03*
X+0Y-101000D03*
X+0Y+153000D03*
X+1524000Y-609000D03*
X+0Y-609000D03*
X+1524000Y-355000D03*
X+1524000Y-101000D03*
X+1524000Y+153000D03*
X+1524000Y+407000D03*
X+1524000Y+661000D03*
X+1524000Y+915000D03*
X+1524000Y+1169000D03*
X+0Y-355000D03*
D45*
X+1038000Y-390000D03*
D46*
X+913000Y-390000D03*
X+788000Y-390000D03*
X+663000Y-390000D03*
X+538000Y-390000D03*
D47*
X+388000Y-240000D03*
X+388000Y-115000D03*
X+388000Y+10000D03*
X+388000Y+135000D03*
X+388000Y+260000D03*
D46*
X+538000Y+410000D03*
X+663000Y+410000D03*
X+788000Y+410000D03*
X+913000Y+410000D03*
X+1038000Y+410000D03*
D47*
X+1188000Y+260000D03*
X+1188000Y+135000D03*
X+1188000Y+10000D03*
X+1188000Y-115000D03*
X+1188000Y-240000D03*
D48*
X+788000Y+10000D03*
D37*
X-1244000Y-1037000D03*
X-1244000Y-529000D03*
X+680000Y-1778000D03*
X+680000Y-1270000D03*
D49*
X-1145000Y+310140D03*
D50*
X-1774920Y+79000D03*
D49*
X-1145000Y+79000D03*
X-1145000Y-152140D03*
D39*
X-1708000Y+730000D03*
X-1454000Y+730000D03*
X-1200000Y+730000D03*
D37*
X-1057000Y+1332000D03*
X-549000Y+1332000D03*
X-1560000Y-1370000D03*
X-1560000Y-1878000D03*
D51*
X-120000Y-1662000D03*
X-120000Y-1755980D03*
X-120000Y-1849960D03*
X-379080Y-1849960D03*
X-379080Y-1755980D03*
X-379080Y-1662000D03*
D52*
X-94960Y+1925000D03*
X+220000Y+1925000D03*
X+690000Y+1950000D03*
X+1004960Y+1950000D03*
X+1650000Y+1940000D03*
X+1335040Y+1940000D03*
D39*
X-1700000Y+1590000D03*
X-1700000Y+1844000D03*
X-1700000Y+2098000D03*
X-480000Y-422000D03*
X-480000Y-168000D03*
X-480000Y+86000D03*
X-480000Y+340000D03*
X-480000Y+594000D03*
D21*
X-2010000Y-2260000D02*
X+2040000Y-2260000D01*
X+2040000Y+2360000D01*
X-2010000Y+2360000D01*
X-2010000Y-2260000D01*
D53*
X+1088000Y-475000D02*
X+988000Y-475000D01*
X+988000Y-305000D01*
X+1060000Y-305000D01*
X+1088000Y-333000D01*
X+1088000Y-475000D01*
X+303000Y-40000D02*
X+473000Y-40000D01*
X+473000Y+60000D01*
X+303000Y+60000D01*
X+303000Y-40000D01*
X+738000Y-475000D02*
X+838000Y-475000D01*
X+838000Y-305000D01*
X+738000Y-305000D01*
X+738000Y-475000D01*
X+738000Y+325000D02*
X+838000Y+325000D01*
X+838000Y+495000D01*
X+738000Y+495000D01*
X+738000Y+325000D01*
X+1103000Y-40000D02*
X+1273000Y-40000D01*
X+1273000Y+60000D01*
X+1103000Y+60000D01*
X+1103000Y-40000D01*
X+612994Y-475000D02*
X+713000Y-475000D01*
X+713000Y-305000D01*
X+612994Y-305000D01*
X+612994Y-475000D01*
X+612994Y+325000D02*
X+713000Y+325000D01*
X+713000Y+495000D01*
X+612994Y+495000D01*
X+612994Y+325000D01*
X+488000Y-475000D02*
X+588000Y-475000D01*
X+588000Y-305000D01*
X+488000Y-305000D01*
X+488000Y-475000D01*
X+488000Y+325000D02*
X+588000Y+325000D01*
X+588000Y+495000D01*
X+488000Y+495000D01*
X+488000Y+325000D01*
X+863000Y-475000D02*
X+963006Y-475000D01*
X+963006Y-305000D01*
X+863000Y-305000D01*
X+863000Y-475000D01*
X+863000Y+325000D02*
X+963006Y+325000D01*
X+963006Y+495000D01*
X+863000Y+495000D01*
X+863000Y+325000D01*
X+988000Y+325000D02*
X+1088000Y+325000D01*
X+1088000Y+495000D01*
X+988000Y+495000D01*
X+988000Y+325000D01*
X+303000Y-165006D02*
X+473000Y-165006D01*
X+473000Y-65000D01*
X+303000Y-65000D01*
X+303000Y-165006D01*
X+1103000Y-165006D02*
X+1273000Y-165006D01*
X+1273000Y-65000D01*
X+1103000Y-65000D01*
X+1103000Y-165006D01*
X+303000Y-290000D02*
X+473000Y-290000D01*
X+473000Y-190000D01*
X+303000Y-190000D01*
X+303000Y-290000D01*
X+1103000Y-290000D02*
X+1273000Y-290000D01*
X+1273000Y-190000D01*
X+1103000Y-190000D01*
X+1103000Y-290000D01*
X+303000Y+85000D02*
X+473000Y+85000D01*
X+473000Y+185006D01*
X+303000Y+185006D01*
X+303000Y+85000D01*
X+1103000Y+85000D02*
X+1273000Y+85000D01*
X+1273000Y+185006D01*
X+1103000Y+185006D01*
X+1103000Y+85000D01*
X+303000Y+210000D02*
X+473000Y+210000D01*
X+473000Y+310000D01*
X+303000Y+310000D01*
X+303000Y+210000D01*
X+1103000Y+210000D02*
X+1273000Y+210000D01*
X+1273000Y+310000D01*
X+1103000Y+310000D01*
X+1103000Y+210000D01*
X+538000Y-240000D02*
X+1038000Y-240000D01*
X+1038000Y+260000D01*
X+538000Y+260000D01*
X+538000Y-240000D01*
D21*
X+1790312Y-1930000D02*
X+1789777Y-1916917D01*
X+1785433Y-1890749D01*
X+1776357Y-1864581D01*
X+1761574Y-1838413D01*
X+1738960Y-1812409D01*
X+1712792Y-1792721D01*
X+1686624Y-1780021D01*
X+1660456Y-1772608D01*
X+1634288Y-1769745D01*
X+1630000Y-1769688D01*
X+1469688Y-1930000D02*
X+1470223Y-1916917D01*
X+1474567Y-1890749D01*
X+1483643Y-1864581D01*
X+1498426Y-1838413D01*
X+1521040Y-1812409D01*
X+1547208Y-1792721D01*
X+1573376Y-1780021D01*
X+1599544Y-1772608D01*
X+1625712Y-1769745D01*
X+1630000Y-1769688D01*
X+1469688Y-1930000D02*
X+1470223Y-1943083D01*
X+1474567Y-1969251D01*
X+1483643Y-1995419D01*
X+1498426Y-2021587D01*
X+1521040Y-2047591D01*
X+1547208Y-2067279D01*
X+1573376Y-2079979D01*
X+1599544Y-2087392D01*
X+1625712Y-2090255D01*
X+1630000Y-2090312D01*
X+1790312Y-1930000D02*
X+1789777Y-1943083D01*
X+1785433Y-1969251D01*
X+1776357Y-1995419D01*
X+1761574Y-2021587D01*
X+1738960Y-2047591D01*
X+1712792Y-2067279D01*
X+1686624Y-2079979D01*
X+1660456Y-2087392D01*
X+1634288Y-2090255D01*
X+1630000Y-2090312D01*
M02*
