G04 PROTEUS GERBER X2 FILE*
%TF.GenerationSoftware,Labcenter,Proteus,8.17-SP2-Build37159*%
%TF.CreationDate,2024-05-15T17:06:41+00:00*%
%TF.FileFunction,Paste,Bot*%
%TF.FilePolarity,Positive*%
%TF.Part,Single*%
%TF.SameCoordinates,{8e856c1c-122a-437a-bfc2-24db689c5e76}*%
%FSLAX45Y45*%
%MOMM*%
G01*
%TA.AperFunction,Material*%
%ADD60R,0.500000X0.500000*%
%ADD61R,0.800100X1.500000*%
%ADD62R,1.500000X0.800100*%
%ADD63R,4.800000X4.800000*%
%TA.AperFunction,Material*%
%ADD64R,2.032000X1.524000*%
%ADD65R,2.032000X3.810000*%
%TA.AperFunction,Material*%
%ADD66R,1.270000X0.558800*%
%TA.AperFunction,Material*%
%ADD67R,1.016000X1.524000*%
%TA.AperFunction,Profile*%
%ADD21C,0.150000*%
%TA.AperFunction,Material*%
%ADD53C,0.025400*%
%TD.AperFunction*%
%TA.AperFunction,Material*%
G36*
X+823000Y-205000D02*
X+823000Y-25000D01*
X+1003000Y-25000D01*
X+1003000Y-205000D01*
X+823000Y-205000D01*
G37*
%TD.AperFunction*%
%TA.AperFunction,Material*%
G36*
X+823000Y+45000D02*
X+823000Y+225000D01*
X+1003000Y+225000D01*
X+1003000Y+45000D01*
X+823000Y+45000D01*
G37*
%TD.AperFunction*%
%TA.AperFunction,Material*%
G36*
X+573000Y+45000D02*
X+573000Y+225000D01*
X+753000Y+225000D01*
X+753000Y+45000D01*
X+573000Y+45000D01*
G37*
%TD.AperFunction*%
%TA.AperFunction,Material*%
G36*
X+573000Y-205000D02*
X+573000Y-25000D01*
X+753000Y-25000D01*
X+753000Y-205000D01*
X+573000Y-205000D01*
G37*
%TD.AperFunction*%
%TA.AperFunction,Material*%
G36*
X+760000Y-453000D02*
X+760000Y-327000D01*
X+816000Y-327000D01*
X+816000Y-453000D01*
X+760000Y-453000D01*
G37*
%TD.AperFunction*%
%TA.AperFunction,Material*%
G36*
X+886000Y-453000D02*
X+886000Y-327000D01*
X+941000Y-327000D01*
X+941000Y-453000D01*
X+886000Y-453000D01*
G37*
%TD.AperFunction*%
%TA.AperFunction,Material*%
G36*
X+635000Y-453000D02*
X+635000Y-327000D01*
X+690000Y-327000D01*
X+690000Y-453000D01*
X+635000Y-453000D01*
G37*
%TD.AperFunction*%
%TA.AperFunction,Material*%
G36*
X+511000Y-453000D02*
X+511000Y-327000D01*
X+565496Y-327000D01*
X+565496Y-453000D01*
X+511000Y-453000D01*
G37*
%TD.AperFunction*%
%TA.AperFunction,Material*%
G36*
X+760000Y+347000D02*
X+760000Y+473000D01*
X+816000Y+473000D01*
X+816000Y+347000D01*
X+760000Y+347000D01*
G37*
%TD.AperFunction*%
%TA.AperFunction,Material*%
G36*
X+886000Y+347000D02*
X+886000Y+473000D01*
X+941000Y+473000D01*
X+941000Y+347000D01*
X+886000Y+347000D01*
G37*
%TD.AperFunction*%
%TA.AperFunction,Material*%
G36*
X+635000Y+347000D02*
X+635000Y+473000D01*
X+690000Y+473000D01*
X+690000Y+347000D01*
X+635000Y+347000D01*
G37*
%TD.AperFunction*%
%TA.AperFunction,Material*%
G36*
X+511000Y+347000D02*
X+511000Y+473000D01*
X+565496Y+473000D01*
X+565496Y+347000D01*
X+511000Y+347000D01*
G37*
%TD.AperFunction*%
%TA.AperFunction,Material*%
G36*
X+1010504Y+347000D02*
X+1010504Y+473000D01*
X+1065000Y+473000D01*
X+1065000Y+347000D01*
X+1010504Y+347000D01*
G37*
%TD.AperFunction*%
%TA.AperFunction,Material*%
G36*
X+325000Y-18000D02*
X+325000Y+38000D01*
X+451000Y+38000D01*
X+451000Y-18000D01*
X+325000Y-18000D01*
G37*
%TD.AperFunction*%
%TA.AperFunction,Material*%
G36*
X+325000Y-143000D02*
X+325000Y-88000D01*
X+451000Y-88000D01*
X+451000Y-143000D01*
X+325000Y-143000D01*
G37*
%TD.AperFunction*%
%TA.AperFunction,Material*%
G36*
X+325000Y-267000D02*
X+325000Y-212504D01*
X+451000Y-212504D01*
X+451000Y-267000D01*
X+325000Y-267000D01*
G37*
%TD.AperFunction*%
%TA.AperFunction,Material*%
G36*
X+325000Y+108000D02*
X+325000Y+163000D01*
X+451000Y+163000D01*
X+451000Y+108000D01*
X+325000Y+108000D01*
G37*
%TD.AperFunction*%
%TA.AperFunction,Material*%
G36*
X+325000Y+232504D02*
X+325000Y+287000D01*
X+451000Y+287000D01*
X+451000Y+232504D01*
X+325000Y+232504D01*
G37*
%TD.AperFunction*%
%TA.AperFunction,Material*%
G36*
X+1125000Y-18000D02*
X+1125000Y+38000D01*
X+1251000Y+38000D01*
X+1251000Y-18000D01*
X+1125000Y-18000D01*
G37*
%TD.AperFunction*%
%TA.AperFunction,Material*%
G36*
X+1125000Y-143000D02*
X+1125000Y-88000D01*
X+1251000Y-88000D01*
X+1251000Y-143000D01*
X+1125000Y-143000D01*
G37*
%TD.AperFunction*%
%TA.AperFunction,Material*%
G36*
X+1125000Y-267000D02*
X+1125000Y-212504D01*
X+1251000Y-212504D01*
X+1251000Y-267000D01*
X+1125000Y-267000D01*
G37*
%TD.AperFunction*%
%TA.AperFunction,Material*%
G36*
X+1125000Y+108000D02*
X+1125000Y+163000D01*
X+1251000Y+163000D01*
X+1251000Y+108000D01*
X+1125000Y+108000D01*
G37*
%TD.AperFunction*%
%TA.AperFunction,Material*%
G36*
X+1125000Y+232504D02*
X+1125000Y+287000D01*
X+1251000Y+287000D01*
X+1251000Y+232504D01*
X+1125000Y+232504D01*
G37*
%TD.AperFunction*%
%TA.AperFunction,Material*%
G36*
X+1010504Y-327000D02*
X+1010504Y-453000D01*
X+1065000Y-453000D01*
X+1065000Y-345000D01*
X+1048000Y-327000D01*
X+1010504Y-327000D01*
G37*
%TD.AperFunction*%
D60*
X+1038000Y-390000D03*
D61*
X+913000Y-390000D03*
X+788000Y-390000D03*
X+663000Y-390000D03*
X+538000Y-390000D03*
D62*
X+388000Y-240000D03*
X+388000Y-115000D03*
X+388000Y+10000D03*
X+388000Y+135000D03*
X+388000Y+260000D03*
D61*
X+538000Y+410000D03*
X+663000Y+410000D03*
X+788000Y+410000D03*
X+913000Y+410000D03*
X+1038000Y+410000D03*
D62*
X+1188000Y+260000D03*
X+1188000Y+135000D03*
X+1188000Y+10000D03*
X+1188000Y-115000D03*
X+1188000Y-240000D03*
D63*
X+788000Y+10000D03*
D64*
X-1145000Y+310140D03*
D65*
X-1774920Y+79000D03*
D64*
X-1145000Y+79000D03*
X-1145000Y-152140D03*
D66*
X-120000Y-1662000D03*
X-120000Y-1755980D03*
X-120000Y-1849960D03*
X-379080Y-1849960D03*
X-379080Y-1755980D03*
X-379080Y-1662000D03*
D67*
X-94960Y+1925000D03*
X+220000Y+1925000D03*
X+690000Y+1950000D03*
X+1004960Y+1950000D03*
X+1650000Y+1940000D03*
X+1335040Y+1940000D03*
D21*
X-2010000Y-2260000D02*
X+2040000Y-2260000D01*
X+2040000Y+2360000D01*
X-2010000Y+2360000D01*
X-2010000Y-2260000D01*
D53*
X+823000Y-205000D02*
X+1003000Y-205000D01*
X+1003000Y-25000D01*
X+823000Y-25000D01*
X+823000Y-205000D01*
X+823000Y+45000D02*
X+1003000Y+45000D01*
X+1003000Y+225000D01*
X+823000Y+225000D01*
X+823000Y+45000D01*
X+573000Y+45000D02*
X+753000Y+45000D01*
X+753000Y+225000D01*
X+573000Y+225000D01*
X+573000Y+45000D01*
X+573000Y-205000D02*
X+753000Y-205000D01*
X+753000Y-25000D01*
X+573000Y-25000D01*
X+573000Y-205000D01*
X+760000Y-453000D02*
X+816000Y-453000D01*
X+816000Y-327000D01*
X+760000Y-327000D01*
X+760000Y-453000D01*
X+886000Y-453000D02*
X+941000Y-453000D01*
X+941000Y-327000D01*
X+886000Y-327000D01*
X+886000Y-453000D01*
X+635000Y-453000D02*
X+690000Y-453000D01*
X+690000Y-327000D01*
X+635000Y-327000D01*
X+635000Y-453000D01*
X+511000Y-453000D02*
X+565496Y-453000D01*
X+565496Y-327000D01*
X+511000Y-327000D01*
X+511000Y-453000D01*
X+760000Y+347000D02*
X+816000Y+347000D01*
X+816000Y+473000D01*
X+760000Y+473000D01*
X+760000Y+347000D01*
X+886000Y+347000D02*
X+941000Y+347000D01*
X+941000Y+473000D01*
X+886000Y+473000D01*
X+886000Y+347000D01*
X+635000Y+347000D02*
X+690000Y+347000D01*
X+690000Y+473000D01*
X+635000Y+473000D01*
X+635000Y+347000D01*
X+511000Y+347000D02*
X+565496Y+347000D01*
X+565496Y+473000D01*
X+511000Y+473000D01*
X+511000Y+347000D01*
X+1010504Y+347000D02*
X+1065000Y+347000D01*
X+1065000Y+473000D01*
X+1010504Y+473000D01*
X+1010504Y+347000D01*
X+325000Y-18000D02*
X+451000Y-18000D01*
X+451000Y+38000D01*
X+325000Y+38000D01*
X+325000Y-18000D01*
X+325000Y-143000D02*
X+451000Y-143000D01*
X+451000Y-88000D01*
X+325000Y-88000D01*
X+325000Y-143000D01*
X+325000Y-267000D02*
X+451000Y-267000D01*
X+451000Y-212504D01*
X+325000Y-212504D01*
X+325000Y-267000D01*
X+325000Y+108000D02*
X+451000Y+108000D01*
X+451000Y+163000D01*
X+325000Y+163000D01*
X+325000Y+108000D01*
X+325000Y+232504D02*
X+451000Y+232504D01*
X+451000Y+287000D01*
X+325000Y+287000D01*
X+325000Y+232504D01*
X+1125000Y-18000D02*
X+1251000Y-18000D01*
X+1251000Y+38000D01*
X+1125000Y+38000D01*
X+1125000Y-18000D01*
X+1125000Y-143000D02*
X+1251000Y-143000D01*
X+1251000Y-88000D01*
X+1125000Y-88000D01*
X+1125000Y-143000D01*
X+1125000Y-267000D02*
X+1251000Y-267000D01*
X+1251000Y-212504D01*
X+1125000Y-212504D01*
X+1125000Y-267000D01*
X+1125000Y+108000D02*
X+1251000Y+108000D01*
X+1251000Y+163000D01*
X+1125000Y+163000D01*
X+1125000Y+108000D01*
X+1125000Y+232504D02*
X+1251000Y+232504D01*
X+1251000Y+287000D01*
X+1125000Y+287000D01*
X+1125000Y+232504D01*
X+1010504Y-327000D02*
X+1010504Y-453000D01*
X+1065000Y-453000D01*
X+1065000Y-345000D01*
X+1048000Y-327000D01*
X+1010504Y-327000D01*
D21*
X+1790312Y-1930000D02*
X+1789777Y-1916917D01*
X+1785433Y-1890749D01*
X+1776357Y-1864581D01*
X+1761574Y-1838413D01*
X+1738960Y-1812409D01*
X+1712792Y-1792721D01*
X+1686624Y-1780021D01*
X+1660456Y-1772608D01*
X+1634288Y-1769745D01*
X+1630000Y-1769688D01*
X+1469688Y-1930000D02*
X+1470223Y-1916917D01*
X+1474567Y-1890749D01*
X+1483643Y-1864581D01*
X+1498426Y-1838413D01*
X+1521040Y-1812409D01*
X+1547208Y-1792721D01*
X+1573376Y-1780021D01*
X+1599544Y-1772608D01*
X+1625712Y-1769745D01*
X+1630000Y-1769688D01*
X+1469688Y-1930000D02*
X+1470223Y-1943083D01*
X+1474567Y-1969251D01*
X+1483643Y-1995419D01*
X+1498426Y-2021587D01*
X+1521040Y-2047591D01*
X+1547208Y-2067279D01*
X+1573376Y-2079979D01*
X+1599544Y-2087392D01*
X+1625712Y-2090255D01*
X+1630000Y-2090312D01*
X+1790312Y-1930000D02*
X+1789777Y-1943083D01*
X+1785433Y-1969251D01*
X+1776357Y-1995419D01*
X+1761574Y-2021587D01*
X+1738960Y-2047591D01*
X+1712792Y-2067279D01*
X+1686624Y-2079979D01*
X+1660456Y-2087392D01*
X+1634288Y-2090255D01*
X+1630000Y-2090312D01*
M02*
