G04 PROTEUS GERBER X2 FILE*
%TF.GenerationSoftware,Labcenter,Proteus,8.17-SP2-Build37159*%
%TF.CreationDate,2024-05-15T17:06:41+00:00*%
%TF.FileFunction,Legend,Top*%
%TF.FilePolarity,Positive*%
%TF.Part,Single*%
%TF.SameCoordinates,{8e856c1c-122a-437a-bfc2-24db689c5e76}*%
%FSLAX45Y45*%
%MOMM*%
G01*
%TA.AperFunction,Profile*%
%ADD21C,0.150000*%
%TA.AperFunction,Material*%
%ADD73C,0.127000*%
%ADD30C,0.150000*%
%ADD31C,0.200000*%
%ADD32C,0.250000*%
%TA.AperFunction,NonMaterial*%
%ADD33C,0.150000*%
%TD.AperFunction*%
D21*
X-2010000Y-2260000D02*
X+2040000Y-2260000D01*
X+2040000Y+2360000D01*
X-2010000Y+2360000D01*
X-2010000Y-2260000D01*
D73*
X-138000Y+1516000D02*
X+1662000Y+1516000D01*
X-138000Y+1516000D02*
X-138000Y-754000D01*
X+312000Y-754000D01*
X+1662000Y+1516000D02*
X+1662000Y-754000D01*
X+312000Y-884000D02*
X+1212000Y-884000D01*
X+312000Y-884000D02*
X+312000Y-754000D01*
X+1212000Y-884000D02*
X+1212000Y-754000D01*
X+1662000Y-754000D01*
D30*
X+655320Y-915750D02*
X+655320Y-979250D01*
X+668655Y-991950D01*
X+721995Y-991950D01*
X+735330Y-979250D01*
X+735330Y-915750D01*
X+788670Y-941150D02*
X+815340Y-915750D01*
X+815340Y-991950D01*
X-1244000Y-1164000D02*
X-1269876Y-1156484D01*
X-1293848Y-1134830D01*
X-1315438Y-1100376D01*
X-1334170Y-1054462D01*
X-1349569Y-998429D01*
X-1361158Y-933614D01*
X-1368460Y-861358D01*
X-1371000Y-783000D01*
X-1244000Y-402000D02*
X-1269876Y-409620D01*
X-1293848Y-431528D01*
X-1315438Y-466294D01*
X-1334170Y-512490D01*
X-1349569Y-568688D01*
X-1361158Y-633458D01*
X-1368460Y-705371D01*
X-1371000Y-783000D01*
X-1244000Y-402000D02*
X-1218124Y-409620D01*
X-1194152Y-431528D01*
X-1172562Y-466294D01*
X-1153830Y-512490D01*
X-1138431Y-568688D01*
X-1126842Y-633458D01*
X-1119540Y-705371D01*
X-1117000Y-783000D01*
X-1244000Y-1164000D02*
X-1218124Y-1156484D01*
X-1194152Y-1134830D01*
X-1172562Y-1100376D01*
X-1153830Y-1054462D01*
X-1138431Y-998429D01*
X-1126842Y-933614D01*
X-1119540Y-861358D01*
X-1117000Y-783000D01*
X-1414180Y-809670D02*
X-1401480Y-823005D01*
X-1401480Y-863010D01*
X-1426880Y-889680D01*
X-1452280Y-889680D01*
X-1477680Y-863010D01*
X-1477680Y-823005D01*
X-1464980Y-809670D01*
X-1452280Y-702990D02*
X-1439580Y-716325D01*
X-1439580Y-756330D01*
X-1452280Y-769665D01*
X-1464980Y-769665D01*
X-1477680Y-756330D01*
X-1477680Y-716325D01*
X-1464980Y-702990D01*
X-1414180Y-702990D01*
X-1401480Y-716325D01*
X-1401480Y-756330D01*
X+680000Y-1905000D02*
X+654124Y-1897484D01*
X+630152Y-1875830D01*
X+608562Y-1841376D01*
X+589830Y-1795462D01*
X+574431Y-1739429D01*
X+562842Y-1674614D01*
X+555540Y-1602358D01*
X+553000Y-1524000D01*
X+680000Y-1143000D02*
X+654124Y-1150620D01*
X+630152Y-1172528D01*
X+608562Y-1207294D01*
X+589830Y-1253490D01*
X+574431Y-1309688D01*
X+562842Y-1374458D01*
X+555540Y-1446371D01*
X+553000Y-1524000D01*
X+680000Y-1143000D02*
X+705876Y-1150620D01*
X+729848Y-1172528D01*
X+751438Y-1207294D01*
X+770170Y-1253490D01*
X+785569Y-1309688D01*
X+797158Y-1374458D01*
X+804460Y-1446371D01*
X+807000Y-1524000D01*
X+680000Y-1905000D02*
X+705876Y-1897484D01*
X+729848Y-1875830D01*
X+751438Y-1841376D01*
X+770170Y-1795462D01*
X+785569Y-1739429D01*
X+797158Y-1674614D01*
X+804460Y-1602358D01*
X+807000Y-1524000D01*
X+509820Y-1604010D02*
X+522520Y-1617345D01*
X+522520Y-1657350D01*
X+497120Y-1684020D01*
X+471720Y-1684020D01*
X+446320Y-1657350D01*
X+446320Y-1617345D01*
X+459020Y-1604010D01*
X+471720Y-1550670D02*
X+446320Y-1524000D01*
X+522520Y-1524000D01*
X+509820Y-1470660D02*
X+459020Y-1470660D01*
X+446320Y-1457325D01*
X+446320Y-1403985D01*
X+459020Y-1390650D01*
X+509820Y-1390650D01*
X+522520Y-1403985D01*
X+522520Y-1457325D01*
X+509820Y-1470660D01*
X+522520Y-1470660D02*
X+446320Y-1390650D01*
D31*
X-1500000Y-825000D02*
X-1500000Y-715000D01*
X-1680000Y-825000D02*
X-1680000Y-715000D01*
D30*
X-1728100Y-796670D02*
X-1715400Y-810005D01*
X-1715400Y-850010D01*
X-1740800Y-876680D01*
X-1766200Y-876680D01*
X-1791600Y-850010D01*
X-1791600Y-810005D01*
X-1778900Y-796670D01*
X-1778900Y-756665D02*
X-1791600Y-743330D01*
X-1791600Y-703325D01*
X-1778900Y-689990D01*
X-1766200Y-689990D01*
X-1753500Y-703325D01*
X-1740800Y-689990D01*
X-1728100Y-689990D01*
X-1715400Y-703325D01*
X-1715400Y-743330D01*
X-1728100Y-756665D01*
X-1753500Y-729995D02*
X-1753500Y-703325D01*
D31*
X+990000Y-1335000D02*
X+990000Y-1445000D01*
X+1170000Y-1335000D02*
X+1170000Y-1445000D01*
D30*
X+1108900Y-1066670D02*
X+1121600Y-1080005D01*
X+1121600Y-1120010D01*
X+1096200Y-1146680D01*
X+1070800Y-1146680D01*
X+1045400Y-1120010D01*
X+1045400Y-1080005D01*
X+1058100Y-1066670D01*
X+1096200Y-959990D02*
X+1096200Y-1040000D01*
X+1045400Y-986660D01*
X+1121600Y-986660D01*
X-1835000Y+603000D02*
X-1073000Y+603000D01*
X-1073000Y+857000D01*
X-1835000Y+857000D01*
X-1835000Y+603000D01*
X-1784040Y+930180D02*
X-1770705Y+917480D01*
X-1717365Y+917480D01*
X-1704030Y+930180D01*
X-1704030Y+942880D01*
X-1717365Y+955580D01*
X-1770705Y+955580D01*
X-1784040Y+968280D01*
X-1784040Y+980980D01*
X-1770705Y+993680D01*
X-1717365Y+993680D01*
X-1704030Y+980980D01*
X-1677360Y+993680D02*
X-1677360Y+917480D01*
X-1637355Y+955580D01*
X-1597350Y+917480D01*
X-1597350Y+993680D01*
X-1557345Y+993680D02*
X-1504005Y+993680D01*
X-1530675Y+993680D02*
X-1530675Y+917480D01*
X-1557345Y+917480D02*
X-1504005Y+917480D01*
X-1464000Y+993680D02*
X-1383990Y+993680D01*
X-1423995Y+993680D02*
X-1423995Y+917480D01*
X-1277310Y+930180D02*
X-1290645Y+917480D01*
X-1330650Y+917480D01*
X-1357320Y+942880D01*
X-1357320Y+968280D01*
X-1330650Y+993680D01*
X-1290645Y+993680D01*
X-1277310Y+980980D01*
X-1250640Y+917480D02*
X-1250640Y+993680D01*
X-1170630Y+993680D02*
X-1170630Y+917480D01*
X-1250640Y+955580D02*
X-1170630Y+955580D01*
X-1184000Y+1332000D02*
X-1176484Y+1357876D01*
X-1154830Y+1381848D01*
X-1120376Y+1403438D01*
X-1074462Y+1422170D01*
X-1018428Y+1437569D01*
X-953614Y+1449158D01*
X-881358Y+1456460D01*
X-803000Y+1459000D01*
X-422000Y+1332000D02*
X-429620Y+1357876D01*
X-451528Y+1381848D01*
X-486294Y+1403438D01*
X-532490Y+1422170D01*
X-588688Y+1437569D01*
X-653458Y+1449158D01*
X-725371Y+1456460D01*
X-803000Y+1459000D01*
X-422000Y+1332000D02*
X-429620Y+1306124D01*
X-451528Y+1282152D01*
X-486294Y+1260562D01*
X-532490Y+1241830D01*
X-588688Y+1226431D01*
X-653458Y+1214842D01*
X-725371Y+1207540D01*
X-803000Y+1205000D01*
X-1184000Y+1332000D02*
X-1176484Y+1306124D01*
X-1154830Y+1282152D01*
X-1120376Y+1260562D01*
X-1074462Y+1241830D01*
X-1018428Y+1226431D01*
X-953614Y+1214842D01*
X-881358Y+1207540D01*
X-803000Y+1205000D01*
X-819670Y+1502180D02*
X-833005Y+1489480D01*
X-873010Y+1489480D01*
X-899680Y+1514880D01*
X-899680Y+1540280D01*
X-873010Y+1565680D01*
X-833005Y+1565680D01*
X-819670Y+1552980D01*
X-766330Y+1540280D02*
X-739660Y+1565680D01*
X-739660Y+1489480D01*
D31*
X-1620000Y+1032000D02*
X-1510000Y+1032000D01*
X-1620000Y+1212000D02*
X-1510000Y+1212000D01*
D30*
X-1591670Y+1260100D02*
X-1605005Y+1247400D01*
X-1645010Y+1247400D01*
X-1671680Y+1272800D01*
X-1671680Y+1298200D01*
X-1645010Y+1323600D01*
X-1605005Y+1323600D01*
X-1591670Y+1310900D01*
X-1484990Y+1323600D02*
X-1551665Y+1323600D01*
X-1551665Y+1298200D01*
X-1498325Y+1298200D01*
X-1484990Y+1285500D01*
X-1484990Y+1260100D01*
X-1498325Y+1247400D01*
X-1538330Y+1247400D01*
X-1551665Y+1260100D01*
X-1560000Y-1243000D02*
X-1534124Y-1250516D01*
X-1510152Y-1272170D01*
X-1488562Y-1306624D01*
X-1469830Y-1352538D01*
X-1454431Y-1408571D01*
X-1442842Y-1473386D01*
X-1435540Y-1545642D01*
X-1433000Y-1624000D01*
X-1560000Y-2005000D02*
X-1534124Y-1997380D01*
X-1510152Y-1975472D01*
X-1488562Y-1940706D01*
X-1469830Y-1894510D01*
X-1454431Y-1838312D01*
X-1442842Y-1773542D01*
X-1435540Y-1701629D01*
X-1433000Y-1624000D01*
X-1560000Y-2005000D02*
X-1585876Y-1997380D01*
X-1609848Y-1975472D01*
X-1631438Y-1940706D01*
X-1650170Y-1894510D01*
X-1665569Y-1838312D01*
X-1677158Y-1773542D01*
X-1684460Y-1701629D01*
X-1687000Y-1624000D01*
X-1560000Y-1243000D02*
X-1585876Y-1250516D01*
X-1609848Y-1272170D01*
X-1631438Y-1306624D01*
X-1650170Y-1352538D01*
X-1665569Y-1408571D01*
X-1677158Y-1473386D01*
X-1684460Y-1545642D01*
X-1687000Y-1624000D01*
X-1339020Y-1650670D02*
X-1326320Y-1664005D01*
X-1326320Y-1704010D01*
X-1351720Y-1730680D01*
X-1377120Y-1730680D01*
X-1402520Y-1704010D01*
X-1402520Y-1664005D01*
X-1389820Y-1650670D01*
X-1389820Y-1610665D02*
X-1402520Y-1597330D01*
X-1402520Y-1557325D01*
X-1389820Y-1543990D01*
X-1377120Y-1543990D01*
X-1364420Y-1557325D01*
X-1364420Y-1597330D01*
X-1351720Y-1610665D01*
X-1326320Y-1610665D01*
X-1326320Y-1543990D01*
D31*
X+1721000Y-1424000D02*
X+1721000Y-1454000D01*
X+1861000Y-1424000D02*
X+1861000Y-1454000D01*
D30*
X+1832600Y-1245680D02*
X+1756400Y-1245680D01*
X+1756400Y-1179005D01*
X+1769100Y-1165670D01*
X+1781800Y-1165670D01*
X+1794500Y-1179005D01*
X+1794500Y-1245680D01*
X+1794500Y-1179005D02*
X+1807200Y-1165670D01*
X+1832600Y-1165670D01*
X+1769100Y-1125665D02*
X+1756400Y-1112330D01*
X+1756400Y-1072325D01*
X+1769100Y-1058990D01*
X+1781800Y-1058990D01*
X+1794500Y-1072325D01*
X+1794500Y-1112330D01*
X+1807200Y-1125665D01*
X+1832600Y-1125665D01*
X+1832600Y-1058990D01*
D31*
X-1117000Y-1776000D02*
X-1117000Y-1746000D01*
X-1257000Y-1776000D02*
X-1257000Y-1746000D01*
D30*
X-1142400Y-1567680D02*
X-1218600Y-1567680D01*
X-1218600Y-1501005D01*
X-1205900Y-1487670D01*
X-1193200Y-1487670D01*
X-1180500Y-1501005D01*
X-1180500Y-1567680D01*
X-1180500Y-1501005D02*
X-1167800Y-1487670D01*
X-1142400Y-1487670D01*
X-1167800Y-1380990D02*
X-1167800Y-1461000D01*
X-1218600Y-1407660D01*
X-1142400Y-1407660D01*
D31*
X+1366000Y-1424000D02*
X+1366000Y-1454000D01*
X+1506000Y-1424000D02*
X+1506000Y-1454000D01*
D30*
X+1467600Y-1245680D02*
X+1391400Y-1245680D01*
X+1391400Y-1179005D01*
X+1404100Y-1165670D01*
X+1416800Y-1165670D01*
X+1429500Y-1179005D01*
X+1429500Y-1245680D01*
X+1429500Y-1179005D02*
X+1442200Y-1165670D01*
X+1467600Y-1165670D01*
X+1391400Y-1058990D02*
X+1391400Y-1125665D01*
X+1416800Y-1125665D01*
X+1416800Y-1072325D01*
X+1429500Y-1058990D01*
X+1454900Y-1058990D01*
X+1467600Y-1072325D01*
X+1467600Y-1112330D01*
X+1454900Y-1125665D01*
D31*
X+324000Y-1758000D02*
X+324000Y-1728000D01*
X+184000Y-1758000D02*
X+184000Y-1728000D01*
D30*
X+148600Y-1903020D02*
X+72400Y-1903020D01*
X+72400Y-1836345D01*
X+85100Y-1823010D01*
X+97800Y-1823010D01*
X+110500Y-1836345D01*
X+110500Y-1903020D01*
X+110500Y-1836345D02*
X+123200Y-1823010D01*
X+148600Y-1823010D01*
X+97800Y-1769670D02*
X+72400Y-1743000D01*
X+148600Y-1743000D01*
X+135900Y-1689660D02*
X+85100Y-1689660D01*
X+72400Y-1676325D01*
X+72400Y-1622985D01*
X+85100Y-1609650D01*
X+135900Y-1609650D01*
X+148600Y-1622985D01*
X+148600Y-1676325D01*
X+135900Y-1689660D01*
X+148600Y-1689660D02*
X+72400Y-1609650D01*
D32*
X-427500Y-1010000D02*
X-427543Y-1008961D01*
X-427895Y-1006882D01*
X-428632Y-1004803D01*
X-429836Y-1002724D01*
X-431677Y-1000674D01*
X-433756Y-999171D01*
X-435835Y-998214D01*
X-437914Y-997675D01*
X-439993Y-997500D01*
X-440000Y-997500D01*
X-452500Y-1010000D02*
X-452457Y-1008961D01*
X-452105Y-1006882D01*
X-451368Y-1004803D01*
X-450164Y-1002724D01*
X-448323Y-1000674D01*
X-446244Y-999171D01*
X-444165Y-998214D01*
X-442086Y-997675D01*
X-440007Y-997500D01*
X-440000Y-997500D01*
X-452500Y-1010000D02*
X-452457Y-1011039D01*
X-452105Y-1013118D01*
X-451368Y-1015197D01*
X-450164Y-1017276D01*
X-448323Y-1019326D01*
X-446244Y-1020829D01*
X-444165Y-1021786D01*
X-442086Y-1022325D01*
X-440007Y-1022500D01*
X-440000Y-1022500D01*
X-427500Y-1010000D02*
X-427543Y-1011039D01*
X-427895Y-1013118D01*
X-428632Y-1015197D01*
X-429836Y-1017276D01*
X-431677Y-1019326D01*
X-433756Y-1020829D01*
X-435835Y-1021786D01*
X-437914Y-1022325D01*
X-439993Y-1022500D01*
X-440000Y-1022500D01*
D31*
X-375000Y-1025000D02*
X-375000Y-980000D01*
X+185000Y-980000D01*
X+185000Y-1025000D01*
X-375000Y-1315000D02*
X-375000Y-1360000D01*
X+185000Y-1360000D01*
X+185000Y-1315000D01*
D30*
X-225530Y-936400D02*
X-225530Y-860200D01*
X-172190Y-860200D01*
X-145520Y-885600D01*
X-145520Y-911000D01*
X-172190Y-936400D01*
X-225530Y-936400D01*
X-38840Y-911000D02*
X-118850Y-911000D01*
X-65510Y-860200D01*
X-65510Y-936400D01*
D31*
X-616000Y-1410000D02*
X-616000Y-1220000D01*
X-956000Y-1410000D02*
X-956000Y-1220000D01*
D30*
X-1067600Y-1421680D02*
X-991400Y-1421680D01*
X-991400Y-1341670D01*
X-1042200Y-1288330D02*
X-1067600Y-1261660D01*
X-991400Y-1261660D01*
D31*
X+370000Y+1185000D02*
X+370000Y+1155000D01*
X+510000Y+1185000D02*
X+510000Y+1155000D01*
D30*
X+621600Y+1063320D02*
X+545400Y+1063320D01*
X+545400Y+1129995D01*
X+558100Y+1143330D01*
X+570800Y+1143330D01*
X+583500Y+1129995D01*
X+583500Y+1063320D01*
X+583500Y+1129995D02*
X+596200Y+1143330D01*
X+621600Y+1143330D01*
X+558100Y+1183335D02*
X+545400Y+1196670D01*
X+545400Y+1236675D01*
X+558100Y+1250010D01*
X+570800Y+1250010D01*
X+583500Y+1236675D01*
X+596200Y+1250010D01*
X+608900Y+1250010D01*
X+621600Y+1236675D01*
X+621600Y+1196670D01*
X+608900Y+1183335D01*
X+583500Y+1210005D02*
X+583500Y+1236675D01*
D31*
X+1000000Y+1186000D02*
X+1000000Y+1156000D01*
X+1140000Y+1186000D02*
X+1140000Y+1156000D01*
D30*
X+1251600Y+1064320D02*
X+1175400Y+1064320D01*
X+1175400Y+1130995D01*
X+1188100Y+1144330D01*
X+1200800Y+1144330D01*
X+1213500Y+1130995D01*
X+1213500Y+1064320D01*
X+1213500Y+1130995D02*
X+1226200Y+1144330D01*
X+1251600Y+1144330D01*
X+1213500Y+1197670D02*
X+1200800Y+1184335D01*
X+1188100Y+1184335D01*
X+1175400Y+1197670D01*
X+1175400Y+1237675D01*
X+1188100Y+1251010D01*
X+1200800Y+1251010D01*
X+1213500Y+1237675D01*
X+1213500Y+1197670D01*
X+1226200Y+1184335D01*
X+1238900Y+1184335D01*
X+1251600Y+1197670D01*
X+1251600Y+1237675D01*
X+1238900Y+1251010D01*
X+1226200Y+1251010D01*
X+1213500Y+1237675D01*
D31*
X+1730000Y-245000D02*
X+1730000Y-275000D01*
X+1870000Y-245000D02*
X+1870000Y-275000D01*
D30*
X+1801600Y-686680D02*
X+1725400Y-686680D01*
X+1725400Y-620005D01*
X+1738100Y-606670D01*
X+1750800Y-606670D01*
X+1763500Y-620005D01*
X+1763500Y-686680D01*
X+1763500Y-620005D02*
X+1776200Y-606670D01*
X+1801600Y-606670D01*
X+1750800Y-499990D02*
X+1763500Y-513325D01*
X+1763500Y-553330D01*
X+1750800Y-566665D01*
X+1738100Y-566665D01*
X+1725400Y-553330D01*
X+1725400Y-513325D01*
X+1738100Y-499990D01*
X+1788900Y-499990D01*
X+1801600Y-513325D01*
X+1801600Y-553330D01*
D31*
X-1205000Y+1560000D02*
X-1175000Y+1560000D01*
X-1205000Y+1700000D02*
X-1175000Y+1700000D01*
D30*
X-1296680Y+1735400D02*
X-1296680Y+1811600D01*
X-1230005Y+1811600D01*
X-1216670Y+1798900D01*
X-1216670Y+1786200D01*
X-1230005Y+1773500D01*
X-1296680Y+1773500D01*
X-1230005Y+1773500D02*
X-1216670Y+1760800D01*
X-1216670Y+1735400D01*
X-1163330Y+1786200D02*
X-1136660Y+1811600D01*
X-1136660Y+1735400D01*
D31*
X-710000Y+1885000D02*
X-710000Y+1915000D01*
X-850000Y+1885000D02*
X-850000Y+1915000D01*
D30*
X-885400Y+1793320D02*
X-961600Y+1793320D01*
X-961600Y+1859995D01*
X-948900Y+1873330D01*
X-936200Y+1873330D01*
X-923500Y+1859995D01*
X-923500Y+1793320D01*
X-923500Y+1859995D02*
X-910800Y+1873330D01*
X-885400Y+1873330D01*
X-948900Y+1980010D02*
X-961600Y+1966675D01*
X-961600Y+1926670D01*
X-948900Y+1913335D01*
X-898100Y+1913335D01*
X-885400Y+1926670D01*
X-885400Y+1966675D01*
X-898100Y+1980010D01*
X-910800Y+1980010D01*
X-923500Y+1966675D01*
X-923500Y+1913335D01*
D31*
X-1225000Y+2080000D02*
X-1255000Y+2080000D01*
X-1225000Y+1940000D02*
X-1255000Y+1940000D01*
D30*
X-1296680Y+2158400D02*
X-1296680Y+2234600D01*
X-1230005Y+2234600D01*
X-1216670Y+2221900D01*
X-1216670Y+2209200D01*
X-1230005Y+2196500D01*
X-1296680Y+2196500D01*
X-1230005Y+2196500D02*
X-1216670Y+2183800D01*
X-1216670Y+2158400D01*
X-1176665Y+2234600D02*
X-1109990Y+2234600D01*
X-1109990Y+2221900D01*
X-1176665Y+2158400D01*
D21*
X+1790312Y-1930000D02*
X+1789777Y-1916917D01*
X+1785433Y-1890749D01*
X+1776357Y-1864581D01*
X+1761574Y-1838413D01*
X+1738960Y-1812409D01*
X+1712792Y-1792721D01*
X+1686624Y-1780021D01*
X+1660456Y-1772608D01*
X+1634288Y-1769745D01*
X+1630000Y-1769688D01*
X+1469688Y-1930000D02*
X+1470223Y-1916917D01*
X+1474567Y-1890749D01*
X+1483643Y-1864581D01*
X+1498426Y-1838413D01*
X+1521040Y-1812409D01*
X+1547208Y-1792721D01*
X+1573376Y-1780021D01*
X+1599544Y-1772608D01*
X+1625712Y-1769745D01*
X+1630000Y-1769688D01*
X+1469688Y-1930000D02*
X+1470223Y-1943083D01*
X+1474567Y-1969251D01*
X+1483643Y-1995419D01*
X+1498426Y-2021587D01*
X+1521040Y-2047591D01*
X+1547208Y-2067279D01*
X+1573376Y-2079979D01*
X+1599544Y-2087392D01*
X+1625712Y-2090255D01*
X+1630000Y-2090312D01*
X+1790312Y-1930000D02*
X+1789777Y-1943083D01*
X+1785433Y-1969251D01*
X+1776357Y-1995419D01*
X+1761574Y-2021587D01*
X+1738960Y-2047591D01*
X+1712792Y-2067279D01*
X+1686624Y-2079979D01*
X+1660456Y-2087392D01*
X+1634288Y-2090255D01*
X+1630000Y-2090312D01*
D30*
X-1827000Y+1463000D02*
X-1573000Y+1463000D01*
X-1573000Y+2225000D01*
X-1827000Y+2225000D01*
X-1827000Y+1463000D01*
D33*
X-607000Y-549000D02*
X-353000Y-549000D01*
X-353000Y+721000D01*
X-607000Y+721000D01*
X-607000Y-549000D01*
X-550000Y+843800D02*
X-550000Y+831100D01*
X-540475Y+818400D01*
X-502375Y+818400D01*
X-492850Y+831100D01*
X-492850Y+894600D01*
X-464275Y+881900D02*
X-454750Y+894600D01*
X-426175Y+894600D01*
X-416650Y+881900D01*
X-416650Y+869200D01*
X-426175Y+856500D01*
X-454750Y+856500D01*
X-464275Y+843800D01*
X-464275Y+818400D01*
X-416650Y+818400D01*
D31*
X-820000Y-1835000D02*
X-820000Y-1805000D01*
X-960000Y-1835000D02*
X-960000Y-1805000D01*
M02*
