G04 PROTEUS GERBER X2 FILE*
%TF.GenerationSoftware,Labcenter,Proteus,8.17-SP2-Build37159*%
%TF.CreationDate,2024-05-15T17:06:41+00:00*%
%TF.FileFunction,Legend,Bot*%
%TF.FilePolarity,Positive*%
%TF.Part,Single*%
%TF.SameCoordinates,{8e856c1c-122a-437a-bfc2-24db689c5e76}*%
%FSLAX45Y45*%
%MOMM*%
G01*
%TA.AperFunction,Profile*%
%ADD21C,0.150000*%
%TA.AperFunction,Material*%
%ADD73C,0.127000*%
%ADD31C,0.200000*%
%ADD30C,0.150000*%
%ADD34C,0.152400*%
%TA.AperFunction,NonMaterial*%
%ADD33C,0.150000*%
%TD.AperFunction*%
D21*
X-2010000Y-2260000D02*
X+2040000Y-2260000D01*
X+2040000Y+2360000D01*
X-2010000Y+2360000D01*
X-2010000Y-2260000D01*
D73*
X+1293000Y-495000D02*
X+1293000Y-312000D01*
X+1293000Y+332000D02*
X+1293000Y+515000D01*
X+1110000Y+515000D01*
X+283000Y+515000D02*
X+466000Y+515000D01*
X+283000Y-312000D02*
X+283000Y-495000D01*
X+283000Y+515000D02*
X+283000Y+332000D01*
X+283000Y-495000D02*
X+466000Y-495000D01*
D31*
X+1048000Y-557000D02*
X+1047965Y-556169D01*
X+1047684Y-554505D01*
X+1047094Y-552841D01*
X+1046130Y-551177D01*
X+1044655Y-549536D01*
X+1042991Y-548335D01*
X+1041327Y-547570D01*
X+1039663Y-547139D01*
X+1038000Y-547000D01*
X+1028000Y-557000D02*
X+1028035Y-556169D01*
X+1028316Y-554505D01*
X+1028906Y-552841D01*
X+1029870Y-551177D01*
X+1031345Y-549536D01*
X+1033009Y-548335D01*
X+1034673Y-547570D01*
X+1036337Y-547139D01*
X+1038000Y-547000D01*
X+1028000Y-557000D02*
X+1028035Y-557831D01*
X+1028316Y-559495D01*
X+1028906Y-561159D01*
X+1029870Y-562823D01*
X+1031345Y-564464D01*
X+1033009Y-565665D01*
X+1034673Y-566430D01*
X+1036337Y-566861D01*
X+1038000Y-567000D01*
X+1048000Y-557000D02*
X+1047965Y-557831D01*
X+1047684Y-559495D01*
X+1047094Y-561159D01*
X+1046130Y-562823D01*
X+1044655Y-564464D01*
X+1042991Y-565665D01*
X+1041327Y-566430D01*
X+1039663Y-566861D01*
X+1038000Y-567000D01*
D73*
X+1293000Y-495000D02*
X+1110000Y-495000D01*
D30*
X+1324750Y+89430D02*
X+1388250Y+89430D01*
X+1400950Y+76095D01*
X+1400950Y+22755D01*
X+1388250Y+9420D01*
X+1324750Y+9420D01*
X+1375550Y-97260D02*
X+1375550Y-17250D01*
X+1324750Y-70590D01*
X+1400950Y-70590D01*
X-1282160Y+404120D02*
X-1282160Y-235960D01*
X-1630140Y-235960D01*
X-1630140Y+404120D01*
X-1284700Y+404120D01*
X-1630140Y+269500D02*
X-1650460Y+269500D01*
X-1650460Y-108960D01*
X-1632680Y-108960D01*
X-1353280Y+510800D02*
X-1353280Y+447300D01*
X-1366615Y+434600D01*
X-1419955Y+434600D01*
X-1433290Y+447300D01*
X-1433290Y+510800D01*
X-1473295Y+498100D02*
X-1486630Y+510800D01*
X-1526635Y+510800D01*
X-1539970Y+498100D01*
X-1539970Y+485400D01*
X-1526635Y+472700D01*
X-1539970Y+460000D01*
X-1539970Y+447300D01*
X-1526635Y+434600D01*
X-1486630Y+434600D01*
X-1473295Y+447300D01*
X-1499965Y+472700D02*
X-1526635Y+472700D01*
D34*
X-302880Y-1603580D02*
X-280020Y-1603580D01*
X-219060Y-1603580D01*
X-196200Y-1603580D01*
X-280020Y-1603580D02*
X-277624Y-1615444D01*
X-271092Y-1625132D01*
X-261403Y-1631664D01*
X-249540Y-1634060D01*
X-237677Y-1631664D01*
X-227988Y-1625132D01*
X-221456Y-1615444D01*
X-219060Y-1603580D01*
D30*
X-162860Y-1495330D02*
X-162860Y-1558830D01*
X-176195Y-1571530D01*
X-229535Y-1571530D01*
X-242870Y-1558830D01*
X-242870Y-1495330D01*
X-282875Y-1508030D02*
X-296210Y-1495330D01*
X-336215Y-1495330D01*
X-349550Y-1508030D01*
X-349550Y-1520730D01*
X-336215Y-1533430D01*
X-296210Y-1533430D01*
X-282875Y-1546130D01*
X-282875Y-1571530D01*
X-349550Y-1571530D01*
X-11140Y+1851340D02*
X+141260Y+1851340D01*
X-8600Y+1998660D02*
X+141260Y+1998660D01*
X+275880Y+1820860D02*
X+275880Y+1744660D01*
X+195870Y+1744660D01*
X+89190Y+1744660D02*
X+169200Y+1744660D01*
X+169200Y+1820860D01*
X+89190Y+1820860D01*
X+169200Y+1782760D02*
X+115860Y+1782760D01*
X+62520Y+1744660D02*
X+62520Y+1820860D01*
X+9180Y+1820860D01*
X-17490Y+1795460D01*
X-17490Y+1770060D01*
X+9180Y+1744660D01*
X+62520Y+1744660D01*
X-70830Y+1795460D02*
X-97500Y+1820860D01*
X-97500Y+1744660D01*
X+773820Y+1876340D02*
X+926220Y+1876340D01*
X+776360Y+2023660D02*
X+926220Y+2023660D01*
X+1060840Y+1845860D02*
X+1060840Y+1769660D01*
X+980830Y+1769660D01*
X+874150Y+1769660D02*
X+954160Y+1769660D01*
X+954160Y+1845860D01*
X+874150Y+1845860D01*
X+954160Y+1807760D02*
X+900820Y+1807760D01*
X+847480Y+1769660D02*
X+847480Y+1845860D01*
X+794140Y+1845860D01*
X+767470Y+1820460D01*
X+767470Y+1795060D01*
X+794140Y+1769660D01*
X+847480Y+1769660D01*
X+727465Y+1833160D02*
X+714130Y+1845860D01*
X+674125Y+1845860D01*
X+660790Y+1833160D01*
X+660790Y+1820460D01*
X+674125Y+1807760D01*
X+714130Y+1807760D01*
X+727465Y+1795060D01*
X+727465Y+1769660D01*
X+660790Y+1769660D01*
X+1566180Y+2013660D02*
X+1413780Y+2013660D01*
X+1563640Y+1866340D02*
X+1413780Y+1866340D01*
X+1705880Y+1810340D02*
X+1705880Y+1734140D01*
X+1625870Y+1734140D01*
X+1519190Y+1734140D02*
X+1599200Y+1734140D01*
X+1599200Y+1810340D01*
X+1519190Y+1810340D01*
X+1599200Y+1772240D02*
X+1545860Y+1772240D01*
X+1492520Y+1734140D02*
X+1492520Y+1810340D01*
X+1439180Y+1810340D01*
X+1412510Y+1784940D01*
X+1412510Y+1759540D01*
X+1439180Y+1734140D01*
X+1492520Y+1734140D01*
X+1372505Y+1797640D02*
X+1359170Y+1810340D01*
X+1319165Y+1810340D01*
X+1305830Y+1797640D01*
X+1305830Y+1784940D01*
X+1319165Y+1772240D01*
X+1305830Y+1759540D01*
X+1305830Y+1746840D01*
X+1319165Y+1734140D01*
X+1359170Y+1734140D01*
X+1372505Y+1746840D01*
X+1345835Y+1772240D02*
X+1319165Y+1772240D01*
D21*
X+1790312Y-1930000D02*
X+1789777Y-1916917D01*
X+1785433Y-1890749D01*
X+1776357Y-1864581D01*
X+1761574Y-1838413D01*
X+1738960Y-1812409D01*
X+1712792Y-1792721D01*
X+1686624Y-1780021D01*
X+1660456Y-1772608D01*
X+1634288Y-1769745D01*
X+1630000Y-1769688D01*
X+1469688Y-1930000D02*
X+1470223Y-1916917D01*
X+1474567Y-1890749D01*
X+1483643Y-1864581D01*
X+1498426Y-1838413D01*
X+1521040Y-1812409D01*
X+1547208Y-1792721D01*
X+1573376Y-1780021D01*
X+1599544Y-1772608D01*
X+1625712Y-1769745D01*
X+1630000Y-1769688D01*
X+1469688Y-1930000D02*
X+1470223Y-1943083D01*
X+1474567Y-1969251D01*
X+1483643Y-1995419D01*
X+1498426Y-2021587D01*
X+1521040Y-2047591D01*
X+1547208Y-2067279D01*
X+1573376Y-2079979D01*
X+1599544Y-2087392D01*
X+1625712Y-2090255D01*
X+1630000Y-2090312D01*
X+1790312Y-1930000D02*
X+1789777Y-1943083D01*
X+1785433Y-1969251D01*
X+1776357Y-1995419D01*
X+1761574Y-2021587D01*
X+1738960Y-2047591D01*
X+1712792Y-2067279D01*
X+1686624Y-2079979D01*
X+1660456Y-2087392D01*
X+1634288Y-2090255D01*
X+1630000Y-2090312D01*
D33*
X+1942240Y+1670000D02*
X+1871120Y+1670000D01*
X+1835560Y+1631900D01*
X+1835560Y+1593800D01*
X+1871120Y+1555700D01*
X+1942240Y+1555700D01*
X+1906680Y+1670000D02*
X+1906680Y+1555700D01*
X+1835560Y+1498550D02*
X+1835560Y+1422350D01*
X+1835560Y+1460450D02*
X+1942240Y+1460450D01*
X+1942240Y+1498550D02*
X+1942240Y+1422350D01*
X+1942240Y+1365200D02*
X+1835560Y+1365200D01*
X+1835560Y+1269950D01*
X+1853340Y+1250900D01*
X+1871120Y+1250900D01*
X+1888900Y+1269950D01*
X+1888900Y+1365200D01*
X+1888900Y+1269950D02*
X+1906680Y+1250900D01*
X+1942240Y+1250900D01*
X+1871120Y+1060400D02*
X+1835560Y+1022300D01*
X+1835560Y+984200D01*
X+1871120Y+946100D01*
X+1906680Y+946100D01*
X+1942240Y+984200D01*
X+1942240Y+1022300D01*
X+1906680Y+1060400D01*
X+1871120Y+1060400D01*
X+1906680Y+984200D02*
X+1942240Y+946100D01*
X+1835560Y+908000D02*
X+1924460Y+908000D01*
X+1942240Y+888950D01*
X+1942240Y+812750D01*
X+1924460Y+793700D01*
X+1835560Y+793700D01*
X+1942240Y+755600D02*
X+1871120Y+755600D01*
X+1835560Y+717500D01*
X+1835560Y+679400D01*
X+1871120Y+641300D01*
X+1942240Y+641300D01*
X+1906680Y+755600D02*
X+1906680Y+641300D01*
X+1835560Y+603200D02*
X+1942240Y+603200D01*
X+1942240Y+488900D01*
X+1835560Y+431750D02*
X+1835560Y+355550D01*
X+1835560Y+393650D02*
X+1942240Y+393650D01*
X+1942240Y+431750D02*
X+1942240Y+355550D01*
X+1835560Y+298400D02*
X+1835560Y+184100D01*
X+1835560Y+241250D02*
X+1942240Y+241250D01*
X+1835560Y+31700D02*
X+1942240Y+146000D01*
X+1835560Y+146000D02*
X+1888900Y+88850D01*
X+1924460Y-158800D02*
X+1942240Y-177850D01*
X+1942240Y-254050D01*
X+1924460Y-273100D01*
X+1906680Y-273100D01*
X+1888900Y-254050D01*
X+1888900Y-177850D01*
X+1871120Y-158800D01*
X+1853340Y-158800D01*
X+1835560Y-177850D01*
X+1835560Y-254050D01*
X+1853340Y-273100D01*
X+1942240Y-425500D02*
X+1942240Y-311200D01*
X+1835560Y-311200D01*
X+1835560Y-425500D01*
X+1888900Y-311200D02*
X+1888900Y-387400D01*
X+1942240Y-463600D02*
X+1835560Y-463600D01*
X+1942240Y-577900D01*
X+1835560Y-577900D01*
X+1924460Y-616000D02*
X+1942240Y-635050D01*
X+1942240Y-711250D01*
X+1924460Y-730300D01*
X+1906680Y-730300D01*
X+1888900Y-711250D01*
X+1888900Y-635050D01*
X+1871120Y-616000D01*
X+1853340Y-616000D01*
X+1835560Y-635050D01*
X+1835560Y-711250D01*
X+1853340Y-730300D01*
X+1871120Y-768400D02*
X+1835560Y-806500D01*
X+1835560Y-844600D01*
X+1871120Y-882700D01*
X+1906680Y-882700D01*
X+1942240Y-844600D01*
X+1942240Y-806500D01*
X+1906680Y-768400D01*
X+1871120Y-768400D01*
X+1942240Y-920800D02*
X+1835560Y-920800D01*
X+1835560Y-1016050D01*
X+1853340Y-1035100D01*
X+1871120Y-1035100D01*
X+1888900Y-1016050D01*
X+1888900Y-920800D01*
X+1888900Y-1016050D02*
X+1906680Y-1035100D01*
X+1942240Y-1035100D01*
X+327500Y-623300D02*
X+270350Y-623300D01*
X+298925Y-602980D02*
X+298925Y-643620D01*
X+194150Y-592820D02*
X+241775Y-592820D01*
X+241775Y-613140D01*
X+203675Y-613140D01*
X+194150Y-623300D01*
X+194150Y-643620D01*
X+203675Y-653780D01*
X+232250Y-653780D01*
X+241775Y-643620D01*
X+175100Y-592820D02*
X+175100Y-623300D01*
X+146525Y-653780D01*
X+117950Y-623300D01*
X+117950Y-592820D01*
X+178000Y-363460D02*
X+158950Y-363460D01*
X+158950Y-383780D01*
X+197050Y-383780D01*
X+216100Y-363460D01*
X+216100Y-343140D01*
X+197050Y-322820D01*
X+168475Y-322820D01*
X+158950Y-332980D01*
M02*
