G04 PROTEUS GERBER X2 FILE*
%TF.GenerationSoftware,Labcenter,Proteus,8.17-SP2-Build37159*%
%TF.CreationDate,2024-05-15T17:06:41+00:00*%
%TF.FileFunction,Copper,L1,Top*%
%TF.FilePolarity,Positive*%
%TF.Part,Single*%
%TF.SameCoordinates,{8e856c1c-122a-437a-bfc2-24db689c5e76}*%
%FSLAX45Y45*%
%MOMM*%
G01*
%TA.AperFunction,Conductor*%
%ADD10C,0.508000*%
%TA.AperFunction,ViaPad*%
%ADD11C,0.762000*%
%TA.AperFunction,Conductor*%
%ADD12C,0.635000*%
%TA.AperFunction,ComponentPad*%
%ADD13C,1.905000*%
%TA.AperFunction,ComponentPad*%
%ADD14C,1.778000*%
%TA.AperFunction,SMDPad,CuDef*%
%ADD15R,1.803400X1.143000*%
%TA.AperFunction,ComponentPad*%
%ADD16R,2.032000X2.032000*%
%TA.AperFunction,SMDPad,CuDef*%
%ADD17R,1.143000X1.803400*%
%ADD18R,1.447800X0.939800*%
%ADD19R,2.108200X2.108200*%
%ADD70R,3.403600X1.397000*%
%ADD71R,0.939800X1.447800*%
%TA.AperFunction,OtherPad,Unknown*%
%ADD20R,2.032000X2.032000*%
%TA.AperFunction,Profile*%
%ADD21C,0.150000*%
%TD.AperFunction*%
%TA.AperFunction,Conductor*%
G36*
X+2030000Y-2250000D02*
X-2010000Y-2250000D01*
X-2010000Y+2360000D01*
X+2030000Y+2360000D01*
X+2030000Y-2250000D01*
G37*
%TD.AperFunction*%
%LPC*%
G36*
X+1772728Y-2002998D02*
X+1744474Y-2042230D01*
X+1709416Y-2069259D01*
X+1670358Y-2085149D01*
X+1630000Y-2090312D01*
X+1589642Y-2085149D01*
X+1550584Y-2069259D01*
X+1515526Y-2042230D01*
X+1487272Y-2002998D01*
X+1469688Y-1930000D01*
X+1487272Y-1857002D01*
X+1515526Y-1817770D01*
X+1550584Y-1790741D01*
X+1589642Y-1774851D01*
X+1630000Y-1769688D01*
X+1670358Y-1774851D01*
X+1709416Y-1790741D01*
X+1744474Y-1817770D01*
X+1772728Y-1857002D01*
X+1790312Y-1930000D01*
X+1772728Y-2002998D01*
G37*
G36*
X+511486Y+1466378D02*
X+511486Y+1387472D01*
X+498786Y+1374772D01*
X+498786Y+1374139D01*
X+569539Y+1374139D01*
X+569539Y+965861D01*
X+452601Y+965861D01*
X+336597Y+849857D01*
X+987451Y+849857D01*
X+987451Y+966861D01*
X+940461Y+966861D01*
X+940461Y+1188451D01*
X+904609Y+1188451D01*
X+892909Y+1200151D01*
X+874947Y+1200151D01*
X+819151Y+1255947D01*
X+819151Y+1334853D01*
X+874947Y+1390649D01*
X+953853Y+1390649D01*
X+969363Y+1375139D01*
X+1199539Y+1375139D01*
X+1199539Y+966861D01*
X+1152549Y+966861D01*
X+1152549Y+733117D01*
X+1104191Y+684759D01*
X+440911Y+684759D01*
X+458234Y+667437D01*
X+458234Y+588531D01*
X+402438Y+532735D01*
X+384476Y+532735D01*
X+282549Y+430808D01*
X+282549Y+152549D01*
X+879191Y+152549D01*
X+1371601Y-339861D01*
X+1371601Y-291874D01*
X+1435475Y-228000D01*
X+1371601Y-164126D01*
X+1371601Y-37874D01*
X+1435475Y+26000D01*
X+1371601Y+89874D01*
X+1371601Y+216126D01*
X+1435475Y+280000D01*
X+1371601Y+343874D01*
X+1371601Y+470126D01*
X+1435475Y+534000D01*
X+1371601Y+597874D01*
X+1371601Y+724126D01*
X+1435475Y+788000D01*
X+1371601Y+851874D01*
X+1371601Y+978126D01*
X+1435475Y+1042000D01*
X+1371601Y+1105874D01*
X+1371601Y+1232126D01*
X+1460874Y+1321399D01*
X+1587126Y+1321399D01*
X+1676399Y+1232126D01*
X+1676399Y+1105874D01*
X+1612525Y+1042000D01*
X+1676399Y+978126D01*
X+1676399Y+851874D01*
X+1612525Y+788000D01*
X+1676399Y+724126D01*
X+1676399Y+597874D01*
X+1612525Y+534000D01*
X+1676399Y+470126D01*
X+1676399Y+343874D01*
X+1612525Y+280000D01*
X+1676399Y+216126D01*
X+1676399Y+89874D01*
X+1612525Y+26000D01*
X+1676399Y-37874D01*
X+1676399Y-55861D01*
X+1717451Y-55861D01*
X+1717451Y-7009D01*
X+1720319Y-4141D01*
X+1720319Y+27658D01*
X+1707619Y+40358D01*
X+1707619Y+119264D01*
X+1763415Y+175060D01*
X+1842321Y+175060D01*
X+1898117Y+119264D01*
X+1898117Y+40358D01*
X+1885417Y+27658D01*
X+1885417Y-55861D01*
X+1929539Y-55861D01*
X+1929539Y-464139D01*
X+1670461Y-464139D01*
X+1670461Y-442549D01*
X+1651976Y-442549D01*
X+1612525Y-482000D01*
X+1676399Y-545874D01*
X+1676399Y-672126D01*
X+1606549Y-741976D01*
X+1606549Y-1037809D01*
X+1803601Y-1234861D01*
X+1920539Y-1234861D01*
X+1920539Y-1643139D01*
X+1661461Y-1643139D01*
X+1661461Y-1621549D01*
X+1566010Y-1621549D01*
X+1566009Y-1621548D01*
X+1565539Y-1621548D01*
X+1565539Y-1643139D01*
X+1306461Y-1643139D01*
X+1306461Y-1605172D01*
X+1227319Y-1605172D01*
X+1227319Y-1654299D01*
X+1162549Y-1654299D01*
X+1162549Y-1812191D01*
X+1114191Y-1860549D01*
X+803995Y-1860549D01*
X+740495Y-1924049D01*
X+619505Y-1924049D01*
X+533951Y-1838495D01*
X+533951Y-1717505D01*
X+619505Y-1631951D01*
X+740495Y-1631951D01*
X+803995Y-1695451D01*
X+997451Y-1695451D01*
X+997451Y-1654299D01*
X+932681Y-1654299D01*
X+932681Y-1425701D01*
X+1227319Y-1425701D01*
X+1227319Y-1440074D01*
X+1306461Y-1440074D01*
X+1306461Y-1326201D01*
X+1227319Y-1247059D01*
X+1227319Y-1354299D01*
X+932681Y-1354299D01*
X+932681Y-1125701D01*
X+1105961Y-1125701D01*
X+885507Y-905247D01*
X+131493Y-905247D01*
X+129531Y-907209D01*
X-128525Y-907209D01*
X-237451Y-798283D01*
X-237451Y-1007441D01*
X-157441Y-1007441D01*
X-157441Y-1332559D01*
X-482559Y-1332559D01*
X-482559Y-1007441D01*
X-402549Y-1007441D01*
X-402549Y-616191D01*
X-437991Y-580749D01*
X-638749Y-580749D01*
X-638749Y-548489D01*
X-1097951Y-1007691D01*
X-1097951Y-1097495D01*
X-1183505Y-1183049D01*
X-1304495Y-1183049D01*
X-1367995Y-1119549D01*
X-1624191Y-1119549D01*
X-1672549Y-1071191D01*
X-1672549Y-1034299D01*
X-1737319Y-1034299D01*
X-1737319Y-805701D01*
X-1442681Y-805701D01*
X-1442681Y-954451D01*
X-1367995Y-954451D01*
X-1304495Y-890951D01*
X-1214691Y-890951D01*
X-663191Y-339451D01*
X-638749Y-339451D01*
X-638749Y+752749D01*
X-321251Y+752749D01*
X-321251Y+422549D01*
X-313609Y+422549D01*
X-305339Y+430819D01*
X-305339Y+1401401D01*
X-256981Y+1449759D01*
X+125586Y+1449759D01*
X+302549Y+1272796D01*
X+302549Y+1122153D01*
X+305249Y+1119453D01*
X+305249Y+1051989D01*
X+310461Y+1057201D01*
X+310461Y+1374139D01*
X+333688Y+1374139D01*
X+333688Y+1374772D01*
X+320988Y+1387472D01*
X+320988Y+1466378D01*
X+376784Y+1522174D01*
X+455690Y+1522174D01*
X+511486Y+1466378D01*
G37*
G36*
X-1183505Y-675049D02*
X-1304495Y-675049D01*
X-1390049Y-589495D01*
X-1390049Y-468505D01*
X-1304495Y-382951D01*
X-1183505Y-382951D01*
X-1097951Y-468505D01*
X-1097951Y-589495D01*
X-1183505Y-675049D01*
G37*
G36*
X+740495Y-1416049D02*
X+619505Y-1416049D01*
X+533951Y-1330495D01*
X+533951Y-1209505D01*
X+619505Y-1123951D01*
X+740495Y-1123951D01*
X+826049Y-1209505D01*
X+826049Y-1330495D01*
X+740495Y-1416049D01*
G37*
G36*
X-1737319Y-734299D02*
X-1737319Y-505701D01*
X-1442681Y-505701D01*
X-1442681Y-734299D01*
X-1737319Y-734299D01*
G37*
G36*
X-1035861Y+2092549D02*
X-909539Y+2092549D01*
X-909539Y+2104139D01*
X-650461Y+2104139D01*
X-650461Y+1724760D01*
X-637224Y+1724760D01*
X-581428Y+1668964D01*
X-581428Y+1590058D01*
X-637224Y+1534262D01*
X-716130Y+1534262D01*
X-728830Y+1546962D01*
X-787170Y+1546962D01*
X-787659Y+1547451D01*
X-985861Y+1547451D01*
X-985861Y+1500461D01*
X-1207451Y+1500461D01*
X-1207451Y+1453191D01*
X-1174902Y+1420642D01*
X-1117495Y+1478049D01*
X-996505Y+1478049D01*
X-910951Y+1392495D01*
X-910951Y+1271505D01*
X-996505Y+1185951D01*
X-1117495Y+1185951D01*
X-1180995Y+1249451D01*
X-1237191Y+1249451D01*
X-1301860Y+1314120D01*
X-1346661Y+1269319D01*
X-1300701Y+1269319D01*
X-1300701Y+974681D01*
X-1529299Y+974681D01*
X-1529299Y+1264099D01*
X-1600701Y+1264099D01*
X-1600701Y+974681D01*
X-1632451Y+974681D01*
X-1632451Y+888749D01*
X-1041251Y+888749D01*
X-1041251Y+571251D01*
X-1866749Y+571251D01*
X-1866749Y+888749D01*
X-1797549Y+888749D01*
X-1797549Y+974681D01*
X-1829299Y+974681D01*
X-1829299Y+1269319D01*
X-1797549Y+1269319D01*
X-1797549Y+1380839D01*
X-1749191Y+1429197D01*
X-1420263Y+1429197D01*
X-1409869Y+1439591D01*
X-1409869Y+1439593D01*
X-1372549Y+1476913D01*
X-1372549Y+1500461D01*
X-1394139Y+1500461D01*
X-1394139Y+1759539D01*
X-985861Y+1759539D01*
X-985861Y+1712549D01*
X-909539Y+1712549D01*
X-909539Y+1927451D01*
X-1035861Y+1927451D01*
X-1035861Y+1880461D01*
X-1444139Y+1880461D01*
X-1444139Y+2139539D01*
X-1035861Y+2139539D01*
X-1035861Y+2092549D01*
G37*
G36*
X-695049Y+1271505D02*
X-695049Y+1392495D01*
X-609495Y+1478049D01*
X-488505Y+1478049D01*
X-402951Y+1392495D01*
X-402951Y+1271505D01*
X-488505Y+1185951D01*
X-609495Y+1185951D01*
X-695049Y+1271505D01*
G37*
G36*
X+292559Y-1332559D02*
X+212549Y-1332559D01*
X+212549Y-1481991D01*
X+164191Y-1530349D01*
X-100247Y-1530349D01*
X-112947Y-1543049D01*
X-191853Y-1543049D01*
X-204553Y-1530349D01*
X-270609Y-1530349D01*
X-342809Y-1602549D01*
X-558671Y-1602549D01*
X-558671Y-1646999D01*
X-760461Y-1646999D01*
X-760461Y-1822451D01*
X-585553Y-1822451D01*
X-572853Y-1809751D01*
X-493947Y-1809751D01*
X-461207Y-1842491D01*
X+39921Y-1842491D01*
X+121961Y-1760451D01*
X+124461Y-1760451D01*
X+124461Y-1538861D01*
X+383539Y-1538861D01*
X+383539Y-1947139D01*
X+168753Y-1947139D01*
X+108303Y-2007589D01*
X-547551Y-2007589D01*
X-552591Y-2002549D01*
X-760461Y-2002549D01*
X-760461Y-2024139D01*
X-1019539Y-2024139D01*
X-1019539Y-1999234D01*
X-1165506Y-1999234D01*
X-1199601Y-1965139D01*
X-1316539Y-1965139D01*
X-1316539Y-1943549D01*
X-1419005Y-1943549D01*
X-1499505Y-2024049D01*
X-1620495Y-2024049D01*
X-1706049Y-1938495D01*
X-1706049Y-1817505D01*
X-1620495Y-1731951D01*
X-1499505Y-1731951D01*
X-1453005Y-1778451D01*
X-1316539Y-1778451D01*
X-1316539Y-1556861D01*
X-1269549Y-1556861D01*
X-1269549Y-1452549D01*
X-1436005Y-1452549D01*
X-1499505Y-1516049D01*
X-1620495Y-1516049D01*
X-1706049Y-1430495D01*
X-1706049Y-1309505D01*
X-1620495Y-1223951D01*
X-1499505Y-1223951D01*
X-1436005Y-1287451D01*
X-1152809Y-1287451D01*
X-1104451Y-1335809D01*
X-1104451Y-1556861D01*
X-1057461Y-1556861D01*
X-1057461Y-1578451D01*
X-1013329Y-1578451D01*
X-1013329Y-1393001D01*
X-558671Y-1393001D01*
X-558671Y-1437451D01*
X-411191Y-1437451D01*
X-338991Y-1365251D01*
X-204553Y-1365251D01*
X-191853Y-1352551D01*
X-112947Y-1352551D01*
X-100247Y-1365251D01*
X+47451Y-1365251D01*
X+47451Y-1332559D01*
X-32559Y-1332559D01*
X-32559Y-1007441D01*
X+292559Y-1007441D01*
X+292559Y-1332559D01*
G37*
G36*
X-742154Y-851351D02*
X-742154Y-930257D01*
X-754854Y-942957D01*
X-754854Y-983001D01*
X-558671Y-983001D01*
X-558671Y-1236999D01*
X-1013329Y-1236999D01*
X-1013329Y-983001D01*
X-919952Y-983001D01*
X-919952Y-942957D01*
X-932652Y-930257D01*
X-932652Y-851351D01*
X-876856Y-795555D01*
X-797950Y-795555D01*
X-742154Y-851351D01*
G37*
G36*
X-1541251Y+1939251D02*
X-1541251Y+1431251D01*
X-1858749Y+1431251D01*
X-1858749Y+2256749D01*
X-1541251Y+2256749D01*
X-1541251Y+1939251D01*
G37*
%LPD*%
%TA.AperFunction,Conductor*%
G36*
X-317799Y+153564D02*
X-317799Y+91060D01*
X-255448Y+28708D01*
X-255448Y-529812D01*
X-321251Y-464009D01*
X-321251Y+157016D01*
X-317799Y+153564D01*
G37*
%TD.AperFunction*%
D10*
X-1715000Y+1122000D02*
X-1715000Y+737000D01*
X-1708000Y+730000D01*
X-1057000Y+1332000D02*
X-1203000Y+1332000D01*
X-1272400Y+1401400D01*
X-1327320Y+1401400D01*
X-1327320Y+1405400D01*
X-1715000Y+1122000D02*
X-1715000Y+1346648D01*
X-1386072Y+1346648D01*
X-1327320Y+1405400D01*
X-1290000Y+1442720D01*
X-1290000Y+1630000D01*
X-152400Y-1447800D02*
X+130000Y-1447800D01*
X+130000Y-1170000D01*
X-152400Y-1447800D02*
X-304800Y-1447800D01*
X-377000Y-1520000D01*
X-786000Y-1520000D01*
X-1187000Y-1861000D02*
X-1543000Y-1861000D01*
X-1560000Y-1878000D01*
X-533400Y-1905000D02*
X-513360Y-1925040D01*
X+74112Y-1925040D01*
X+156152Y-1843000D01*
X+254000Y-1843000D01*
X-780000Y+1656532D02*
X-780000Y+1630000D01*
X-1090000Y+1630000D01*
X-676677Y+1629511D02*
X-752979Y+1629511D01*
X-780000Y+1656532D01*
X-780000Y+1800000D01*
X-780000Y+2000000D02*
X-790000Y+2010000D01*
X-1140000Y+2010000D01*
X+914400Y+1295400D02*
X+938800Y+1271000D01*
X+1070000Y+1271000D01*
X+1802868Y+79811D02*
X+1802868Y-38332D01*
X+1800000Y-41200D01*
X+1800000Y-160000D01*
X+1524000Y-355000D02*
X+1524000Y-365000D01*
X+1529000Y-360000D01*
X+1800000Y-360000D01*
X+1436000Y-1538999D02*
X+1600200Y-1538999D01*
X+1600201Y-1539000D01*
X+1791000Y-1539000D01*
X+1436000Y-1539000D02*
X+1436000Y-1538999D01*
X+1436000Y-1522623D01*
X+1080000Y-1522623D01*
X+1080000Y-1540000D02*
X+1080000Y-1522623D01*
X+680000Y-1778000D02*
X+1080000Y-1778000D01*
X+1080000Y-1540000D01*
X-1244000Y-1037000D02*
X-1590000Y-1037000D01*
X-1590000Y-920000D01*
X-1244000Y-529000D02*
X-1244000Y+0D01*
X-1158000Y+86000D01*
X-480000Y+86000D01*
X+680000Y-1270000D02*
X+426000Y-1524000D01*
X+254000Y-1524000D01*
X+254000Y-1643000D01*
X-1244000Y-529000D02*
X-1447800Y-529000D01*
X-1447800Y-620000D01*
X-1590000Y-620000D01*
X-1700000Y+2098000D02*
X-1612000Y+2010000D01*
X-1340000Y+2010000D01*
X+0Y+153000D02*
X-172899Y-19899D01*
X-172899Y-746095D01*
X-94334Y-824660D01*
X+95340Y-824660D01*
X+97302Y-822698D01*
X+919698Y-822698D01*
X+1436000Y-1339000D01*
X+0Y+661000D02*
X+31000Y+661000D01*
X+440000Y+1070000D01*
X+0Y+407000D02*
X+360308Y+767308D01*
X+1070000Y+767308D01*
X+1070000Y+1071000D01*
X+204496Y-120455D02*
X+204496Y-651810D01*
X+831224Y-651810D01*
X+835116Y-647918D01*
X-1244000Y-1037000D02*
X-629000Y-422000D01*
X-480000Y-422000D01*
X-837403Y-890804D02*
X-837403Y-1058597D01*
X-786000Y-1110000D01*
X-320000Y-1170000D02*
X-320000Y-582000D01*
X-480000Y-422000D01*
X-890000Y-1920000D02*
X-781849Y-1920000D01*
X-559890Y-1920000D01*
X-544890Y-1905000D01*
X-533400Y-1905000D02*
X-544890Y-1905000D01*
X-766849Y-1905000D01*
X-766894Y-1905045D01*
X-781849Y-1920000D01*
X-890000Y-1720000D02*
X-949000Y-1661000D01*
X-1176000Y-1661000D01*
X-1187000Y-1650000D01*
X-1560000Y-1370000D02*
X-1187000Y-1370000D01*
X-1187000Y-1650000D01*
X-1187000Y-1661000D01*
X-549000Y+1332000D02*
X-685000Y+1196000D01*
X-841200Y+1196000D01*
X-920298Y+1116902D01*
X-1415000Y+1116902D01*
X-1415000Y+1122000D01*
X-172899Y-19899D02*
X-172899Y+62900D01*
X-235250Y+125251D01*
X-229533Y+130968D01*
X-229533Y+200000D01*
X+1791000Y-1339000D02*
X+1524000Y-1072000D01*
X+1524000Y-609000D01*
X+200000Y+70000D02*
X+845000Y+70000D01*
X+1524000Y-609000D01*
X+680000Y-1270000D02*
X+680000Y-1244012D01*
X+914188Y-1244012D01*
X+918200Y-1240000D01*
X+1080000Y-1240000D01*
X+416237Y+1426925D02*
X+416237Y+1270000D01*
X+440000Y+1270000D01*
X-480000Y+340000D02*
X-279418Y+340000D01*
X-222790Y+396628D01*
X-222790Y+1367210D01*
X+91395Y+1367210D01*
X+220000Y+1238605D01*
X+220000Y+1090000D01*
X+210000Y+1080000D01*
X+362985Y+627984D02*
X+200000Y+464999D01*
X+200000Y+70000D01*
X-1187000Y-1861000D02*
X-1131315Y-1916685D01*
X-882085Y-1916685D01*
X-870400Y-1905000D01*
X-766849Y-1905000D01*
D11*
X-152400Y-1447800D03*
X-676677Y+1629511D03*
X+914400Y+1295400D03*
X+1802868Y+79811D03*
X+204496Y-120455D03*
X+835116Y-647918D03*
X-837403Y-890804D03*
X-533400Y-1905000D03*
X-229533Y+200000D03*
X+416237Y+1426925D03*
X+210000Y+1080000D03*
X+362985Y+627984D03*
X+200000Y+70000D03*
D12*
X+2030000Y-2250000D02*
X-2010000Y-2250000D01*
X-2010000Y+2360000D01*
X+2030000Y+2360000D01*
X+2030000Y-2250000D01*
X+1772728Y-2002998D02*
X+1744474Y-2042230D01*
X+1709416Y-2069259D01*
X+1670358Y-2085149D01*
X+1630000Y-2090312D01*
X+1589642Y-2085149D01*
X+1550584Y-2069259D01*
X+1515526Y-2042230D01*
X+1487272Y-2002998D01*
X+1469688Y-1930000D01*
X+1487272Y-1857002D01*
X+1515526Y-1817770D01*
X+1550584Y-1790741D01*
X+1589642Y-1774851D01*
X+1630000Y-1769688D01*
X+1670358Y-1774851D01*
X+1709416Y-1790741D01*
X+1744474Y-1817770D01*
X+1772728Y-1857002D01*
X+1790312Y-1930000D01*
X+1772728Y-2002998D01*
X+511486Y+1466378D02*
X+511486Y+1387472D01*
X+498786Y+1374772D01*
X+498786Y+1374139D01*
X+569539Y+1374139D01*
X+569539Y+965861D01*
X+452601Y+965861D01*
X+336597Y+849857D01*
X+987451Y+849857D01*
X+987451Y+966861D01*
X+940461Y+966861D01*
X+940461Y+1188451D01*
X+904609Y+1188451D01*
X+892909Y+1200151D01*
X+874947Y+1200151D01*
X+819151Y+1255947D01*
X+819151Y+1334853D01*
X+874947Y+1390649D01*
X+953853Y+1390649D01*
X+969363Y+1375139D01*
X+1199539Y+1375139D01*
X+1199539Y+966861D01*
X+1152549Y+966861D01*
X+1152549Y+733117D01*
X+1104191Y+684759D01*
X+440911Y+684759D01*
X+458234Y+667437D01*
X+458234Y+588531D01*
X+402438Y+532735D01*
X+384476Y+532735D01*
X+282549Y+430808D01*
X+282549Y+152549D01*
X+879191Y+152549D01*
X+1371601Y-339861D01*
X+1371601Y-291874D01*
X+1435475Y-228000D01*
X+1371601Y-164126D01*
X+1371601Y-37874D01*
X+1435475Y+26000D01*
X+1371601Y+89874D01*
X+1371601Y+216126D01*
X+1435475Y+280000D01*
X+1371601Y+343874D01*
X+1371601Y+470126D01*
X+1435475Y+534000D01*
X+1371601Y+597874D01*
X+1371601Y+724126D01*
X+1435475Y+788000D01*
X+1371601Y+851874D01*
X+1371601Y+978126D01*
X+1435475Y+1042000D01*
X+1371601Y+1105874D01*
X+1371601Y+1232126D01*
X+1460874Y+1321399D01*
X+1587126Y+1321399D01*
X+1676399Y+1232126D01*
X+1676399Y+1105874D01*
X+1612525Y+1042000D01*
X+1676399Y+978126D01*
X+1676399Y+851874D01*
X+1612525Y+788000D01*
X+1676399Y+724126D01*
X+1676399Y+597874D01*
X+1612525Y+534000D01*
X+1676399Y+470126D01*
X+1676399Y+343874D01*
X+1612525Y+280000D01*
X+1676399Y+216126D01*
X+1676399Y+89874D01*
X+1612525Y+26000D01*
X+1676399Y-37874D01*
X+1676399Y-55861D01*
X+1717451Y-55861D01*
X+1717451Y-7009D01*
X+1720319Y-4141D01*
X+1720319Y+27658D01*
X+1707619Y+40358D01*
X+1707619Y+119264D01*
X+1763415Y+175060D01*
X+1842321Y+175060D01*
X+1898117Y+119264D01*
X+1898117Y+40358D01*
X+1885417Y+27658D01*
X+1885417Y-55861D01*
X+1929539Y-55861D01*
X+1929539Y-464139D01*
X+1670461Y-464139D01*
X+1670461Y-442549D01*
X+1651976Y-442549D01*
X+1612525Y-482000D01*
X+1676399Y-545874D01*
X+1676399Y-672126D01*
X+1606549Y-741976D01*
X+1606549Y-1037809D01*
X+1803601Y-1234861D01*
X+1920539Y-1234861D01*
X+1920539Y-1643139D01*
X+1661461Y-1643139D01*
X+1661461Y-1621549D01*
X+1566010Y-1621549D01*
X+1566009Y-1621548D01*
X+1565539Y-1621548D01*
X+1565539Y-1643139D01*
X+1306461Y-1643139D01*
X+1306461Y-1605172D01*
X+1227319Y-1605172D01*
X+1227319Y-1654299D01*
X+1162549Y-1654299D01*
X+1162549Y-1812191D01*
X+1114191Y-1860549D01*
X+803995Y-1860549D01*
X+740495Y-1924049D01*
X+619505Y-1924049D01*
X+533951Y-1838495D01*
X+533951Y-1717505D01*
X+619505Y-1631951D01*
X+740495Y-1631951D01*
X+803995Y-1695451D01*
X+997451Y-1695451D01*
X+997451Y-1654299D01*
X+932681Y-1654299D01*
X+932681Y-1425701D01*
X+1227319Y-1425701D01*
X+1227319Y-1440074D01*
X+1306461Y-1440074D01*
X+1306461Y-1326201D01*
X+1227319Y-1247059D01*
X+1227319Y-1354299D01*
X+932681Y-1354299D01*
X+932681Y-1125701D01*
X+1105961Y-1125701D01*
X+885507Y-905247D01*
X+131493Y-905247D01*
X+129531Y-907209D01*
X-128525Y-907209D01*
X-237451Y-798283D01*
X-237451Y-1007441D01*
X-157441Y-1007441D01*
X-157441Y-1332559D01*
X-482559Y-1332559D01*
X-482559Y-1007441D01*
X-402549Y-1007441D01*
X-402549Y-616191D01*
X-437991Y-580749D01*
X-638749Y-580749D01*
X-638749Y-548489D01*
X-1097951Y-1007691D01*
X-1097951Y-1097495D01*
X-1183505Y-1183049D01*
X-1304495Y-1183049D01*
X-1367995Y-1119549D01*
X-1624191Y-1119549D01*
X-1672549Y-1071191D01*
X-1672549Y-1034299D01*
X-1737319Y-1034299D01*
X-1737319Y-805701D01*
X-1442681Y-805701D01*
X-1442681Y-954451D01*
X-1367995Y-954451D01*
X-1304495Y-890951D01*
X-1214691Y-890951D01*
X-663191Y-339451D01*
X-638749Y-339451D01*
X-638749Y+752749D01*
X-321251Y+752749D01*
X-321251Y+422549D01*
X-313609Y+422549D01*
X-305339Y+430819D01*
X-305339Y+1401401D01*
X-256981Y+1449759D01*
X+125586Y+1449759D01*
X+302549Y+1272796D01*
X+302549Y+1122153D01*
X+305249Y+1119453D01*
X+305249Y+1051989D01*
X+310461Y+1057201D01*
X+310461Y+1374139D01*
X+333688Y+1374139D01*
X+333688Y+1374772D01*
X+320988Y+1387472D01*
X+320988Y+1466378D01*
X+376784Y+1522174D01*
X+455690Y+1522174D01*
X+511486Y+1466378D01*
X-1183505Y-675049D02*
X-1304495Y-675049D01*
X-1390049Y-589495D01*
X-1390049Y-468505D01*
X-1304495Y-382951D01*
X-1183505Y-382951D01*
X-1097951Y-468505D01*
X-1097951Y-589495D01*
X-1183505Y-675049D01*
X+740495Y-1416049D02*
X+619505Y-1416049D01*
X+533951Y-1330495D01*
X+533951Y-1209505D01*
X+619505Y-1123951D01*
X+740495Y-1123951D01*
X+826049Y-1209505D01*
X+826049Y-1330495D01*
X+740495Y-1416049D01*
X-1737319Y-734299D02*
X-1737319Y-505701D01*
X-1442681Y-505701D01*
X-1442681Y-734299D01*
X-1737319Y-734299D01*
X-1035861Y+2092549D02*
X-909539Y+2092549D01*
X-909539Y+2104139D01*
X-650461Y+2104139D01*
X-650461Y+1724760D01*
X-637224Y+1724760D01*
X-581428Y+1668964D01*
X-581428Y+1590058D01*
X-637224Y+1534262D01*
X-716130Y+1534262D01*
X-728830Y+1546962D01*
X-787170Y+1546962D01*
X-787659Y+1547451D01*
X-985861Y+1547451D01*
X-985861Y+1500461D01*
X-1207451Y+1500461D01*
X-1207451Y+1453191D01*
X-1174902Y+1420642D01*
X-1117495Y+1478049D01*
X-996505Y+1478049D01*
X-910951Y+1392495D01*
X-910951Y+1271505D01*
X-996505Y+1185951D01*
X-1117495Y+1185951D01*
X-1180995Y+1249451D01*
X-1237191Y+1249451D01*
X-1301860Y+1314120D01*
X-1346661Y+1269319D01*
X-1300701Y+1269319D01*
X-1300701Y+974681D01*
X-1529299Y+974681D01*
X-1529299Y+1264099D01*
X-1600701Y+1264099D01*
X-1600701Y+974681D01*
X-1632451Y+974681D01*
X-1632451Y+888749D01*
X-1041251Y+888749D01*
X-1041251Y+571251D01*
X-1866749Y+571251D01*
X-1866749Y+888749D01*
X-1797549Y+888749D01*
X-1797549Y+974681D01*
X-1829299Y+974681D01*
X-1829299Y+1269319D01*
X-1797549Y+1269319D01*
X-1797549Y+1380839D01*
X-1749191Y+1429197D01*
X-1420263Y+1429197D01*
X-1409869Y+1439591D01*
X-1409869Y+1439593D01*
X-1372549Y+1476913D01*
X-1372549Y+1500461D01*
X-1394139Y+1500461D01*
X-1394139Y+1759539D01*
X-985861Y+1759539D01*
X-985861Y+1712549D01*
X-909539Y+1712549D01*
X-909539Y+1927451D01*
X-1035861Y+1927451D01*
X-1035861Y+1880461D01*
X-1444139Y+1880461D01*
X-1444139Y+2139539D01*
X-1035861Y+2139539D01*
X-1035861Y+2092549D01*
X-695049Y+1271505D02*
X-695049Y+1392495D01*
X-609495Y+1478049D01*
X-488505Y+1478049D01*
X-402951Y+1392495D01*
X-402951Y+1271505D01*
X-488505Y+1185951D01*
X-609495Y+1185951D01*
X-695049Y+1271505D01*
X+292559Y-1332559D02*
X+212549Y-1332559D01*
X+212549Y-1481991D01*
X+164191Y-1530349D01*
X-100247Y-1530349D01*
X-112947Y-1543049D01*
X-191853Y-1543049D01*
X-204553Y-1530349D01*
X-270609Y-1530349D01*
X-342809Y-1602549D01*
X-558671Y-1602549D01*
X-558671Y-1646999D01*
X-760461Y-1646999D01*
X-760461Y-1822451D01*
X-585553Y-1822451D01*
X-572853Y-1809751D01*
X-493947Y-1809751D01*
X-461207Y-1842491D01*
X+39921Y-1842491D01*
X+121961Y-1760451D01*
X+124461Y-1760451D01*
X+124461Y-1538861D01*
X+383539Y-1538861D01*
X+383539Y-1947139D01*
X+168753Y-1947139D01*
X+108303Y-2007589D01*
X-547551Y-2007589D01*
X-552591Y-2002549D01*
X-760461Y-2002549D01*
X-760461Y-2024139D01*
X-1019539Y-2024139D01*
X-1019539Y-1999234D01*
X-1165506Y-1999234D01*
X-1199601Y-1965139D01*
X-1316539Y-1965139D01*
X-1316539Y-1943549D01*
X-1419005Y-1943549D01*
X-1499505Y-2024049D01*
X-1620495Y-2024049D01*
X-1706049Y-1938495D01*
X-1706049Y-1817505D01*
X-1620495Y-1731951D01*
X-1499505Y-1731951D01*
X-1453005Y-1778451D01*
X-1316539Y-1778451D01*
X-1316539Y-1556861D01*
X-1269549Y-1556861D01*
X-1269549Y-1452549D01*
X-1436005Y-1452549D01*
X-1499505Y-1516049D01*
X-1620495Y-1516049D01*
X-1706049Y-1430495D01*
X-1706049Y-1309505D01*
X-1620495Y-1223951D01*
X-1499505Y-1223951D01*
X-1436005Y-1287451D01*
X-1152809Y-1287451D01*
X-1104451Y-1335809D01*
X-1104451Y-1556861D01*
X-1057461Y-1556861D01*
X-1057461Y-1578451D01*
X-1013329Y-1578451D01*
X-1013329Y-1393001D01*
X-558671Y-1393001D01*
X-558671Y-1437451D01*
X-411191Y-1437451D01*
X-338991Y-1365251D01*
X-204553Y-1365251D01*
X-191853Y-1352551D01*
X-112947Y-1352551D01*
X-100247Y-1365251D01*
X+47451Y-1365251D01*
X+47451Y-1332559D01*
X-32559Y-1332559D01*
X-32559Y-1007441D01*
X+292559Y-1007441D01*
X+292559Y-1332559D01*
X-742154Y-851351D02*
X-742154Y-930257D01*
X-754854Y-942957D01*
X-754854Y-983001D01*
X-558671Y-983001D01*
X-558671Y-1236999D01*
X-1013329Y-1236999D01*
X-1013329Y-983001D01*
X-919952Y-983001D01*
X-919952Y-942957D01*
X-932652Y-930257D01*
X-932652Y-851351D01*
X-876856Y-795555D01*
X-797950Y-795555D01*
X-742154Y-851351D01*
X-1541251Y+1939251D02*
X-1541251Y+1431251D01*
X-1858749Y+1431251D01*
X-1858749Y+2256749D01*
X-1541251Y+2256749D01*
X-1541251Y+1939251D01*
X-317799Y+153564D02*
X-317799Y+91060D01*
X-255448Y+28708D01*
X-255448Y-529812D01*
X-321251Y-464009D01*
X-321251Y+157016D01*
X-317799Y+153564D01*
X-1244000Y-643299D02*
X-1244000Y-529000D01*
X-1244000Y-414701D02*
X-1244000Y-529000D01*
X-1129701Y-529000D02*
X-1244000Y-529000D01*
X-1358299Y-529000D02*
X-1244000Y-529000D01*
X+680000Y-1384299D02*
X+680000Y-1270000D01*
X+680000Y-1155701D02*
X+680000Y-1270000D01*
X+794299Y-1270000D02*
X+680000Y-1270000D01*
X+565701Y-1270000D02*
X+680000Y-1270000D01*
X-1474431Y-620000D02*
X-1590000Y-620000D01*
X-1590000Y-537451D02*
X-1590000Y-620000D01*
X-1705569Y-620000D02*
X-1590000Y-620000D01*
X-1590000Y-702549D02*
X-1590000Y-620000D01*
X+964431Y-1240000D02*
X+1080000Y-1240000D01*
X+1080000Y-1322549D02*
X+1080000Y-1240000D01*
X+1080000Y-1157451D02*
X+1080000Y-1240000D01*
X-663299Y+1332000D02*
X-549000Y+1332000D01*
X-434701Y+1332000D02*
X-549000Y+1332000D01*
X-549000Y+1217701D02*
X-549000Y+1332000D01*
X-549000Y+1446299D02*
X-549000Y+1332000D01*
X-1415000Y+1006431D02*
X-1415000Y+1122000D01*
X-1332451Y+1122000D02*
X-1415000Y+1122000D01*
X-1497549Y+1122000D02*
X-1415000Y+1122000D01*
X+351789Y-1643000D02*
X+254000Y-1643000D01*
X+254000Y-1570611D02*
X+254000Y-1643000D01*
X+156211Y-1643000D02*
X+254000Y-1643000D01*
X-1340000Y+2107789D02*
X-1340000Y+2010000D01*
X-1412389Y+2010000D02*
X-1340000Y+2010000D01*
X-1340000Y+1912211D02*
X-1340000Y+2010000D01*
X-1573001Y+1844000D02*
X-1700000Y+1844000D01*
X-1826999Y+1844000D02*
X-1700000Y+1844000D01*
X-1573001Y+2098000D02*
X-1700000Y+2098000D01*
X-1700000Y+2224999D02*
X-1700000Y+2098000D01*
X-1826999Y+2098000D02*
X-1700000Y+2098000D01*
X-353001Y+86000D02*
X-480000Y+86000D01*
X-606999Y+86000D02*
X-480000Y+86000D01*
D13*
X+0Y+1169000D03*
X+0Y+915000D03*
X+0Y+661000D03*
X+0Y+407000D03*
X+0Y-101000D03*
X+0Y+153000D03*
X+1524000Y-609000D03*
X+0Y-609000D03*
X+1524000Y-355000D03*
X+1524000Y-101000D03*
X+1524000Y+153000D03*
X+1524000Y+407000D03*
X+1524000Y+661000D03*
X+1524000Y+915000D03*
X+1524000Y+1169000D03*
X+0Y-355000D03*
D14*
X-1244000Y-1037000D03*
X-1244000Y-529000D03*
X+680000Y-1778000D03*
X+680000Y-1270000D03*
D15*
X-1590000Y-920000D03*
X-1590000Y-620000D03*
X+1080000Y-1240000D03*
X+1080000Y-1540000D03*
D16*
X-1708000Y+730000D03*
X-1454000Y+730000D03*
X-1200000Y+730000D03*
D14*
X-1057000Y+1332000D03*
X-549000Y+1332000D03*
D17*
X-1715000Y+1122000D03*
X-1415000Y+1122000D03*
D14*
X-1560000Y-1370000D03*
X-1560000Y-1878000D03*
D18*
X+1791000Y-1339000D03*
X+1791000Y-1539000D03*
X-1187000Y-1861000D03*
X-1187000Y-1661000D03*
X+1436000Y-1339000D03*
X+1436000Y-1539000D03*
X+254000Y-1843000D03*
X+254000Y-1643000D03*
D19*
X+130000Y-1170000D03*
X-320000Y-1170000D03*
D70*
X-786000Y-1520000D03*
X-786000Y-1110000D03*
D18*
X+440000Y+1270000D03*
X+440000Y+1070000D03*
X+1070000Y+1271000D03*
X+1070000Y+1071000D03*
X+1800000Y-160000D03*
X+1800000Y-360000D03*
D71*
X-1290000Y+1630000D03*
X-1090000Y+1630000D03*
D18*
X-780000Y+1800000D03*
X-780000Y+2000000D03*
D71*
X-1140000Y+2010000D03*
X-1340000Y+2010000D03*
D16*
X-1700000Y+1590000D03*
X-1700000Y+1844000D03*
X-1700000Y+2098000D03*
D20*
X-480000Y-422000D03*
X-480000Y-168000D03*
X-480000Y+86000D03*
X-480000Y+340000D03*
X-480000Y+594000D03*
D18*
X-890000Y-1920000D03*
X-890000Y-1720000D03*
D21*
X-2010000Y-2260000D02*
X+2040000Y-2260000D01*
X+2040000Y+2360000D01*
X-2010000Y+2360000D01*
X-2010000Y-2260000D01*
X+1790312Y-1930000D02*
X+1789777Y-1916917D01*
X+1785433Y-1890749D01*
X+1776357Y-1864581D01*
X+1761574Y-1838413D01*
X+1738960Y-1812409D01*
X+1712792Y-1792721D01*
X+1686624Y-1780021D01*
X+1660456Y-1772608D01*
X+1634288Y-1769745D01*
X+1630000Y-1769688D01*
X+1469688Y-1930000D02*
X+1470223Y-1916917D01*
X+1474567Y-1890749D01*
X+1483643Y-1864581D01*
X+1498426Y-1838413D01*
X+1521040Y-1812409D01*
X+1547208Y-1792721D01*
X+1573376Y-1780021D01*
X+1599544Y-1772608D01*
X+1625712Y-1769745D01*
X+1630000Y-1769688D01*
X+1469688Y-1930000D02*
X+1470223Y-1943083D01*
X+1474567Y-1969251D01*
X+1483643Y-1995419D01*
X+1498426Y-2021587D01*
X+1521040Y-2047591D01*
X+1547208Y-2067279D01*
X+1573376Y-2079979D01*
X+1599544Y-2087392D01*
X+1625712Y-2090255D01*
X+1630000Y-2090312D01*
X+1790312Y-1930000D02*
X+1789777Y-1943083D01*
X+1785433Y-1969251D01*
X+1776357Y-1995419D01*
X+1761574Y-2021587D01*
X+1738960Y-2047591D01*
X+1712792Y-2067279D01*
X+1686624Y-2079979D01*
X+1660456Y-2087392D01*
X+1634288Y-2090255D01*
X+1630000Y-2090312D01*
M02*
