G04 PROTEUS GERBER X2 FILE*
%TF.GenerationSoftware,Labcenter,Proteus,8.17-SP2-Build37159*%
%TF.CreationDate,2024-05-15T17:06:41+00:00*%
%TF.FileFunction,AssemblyDrawing,Top*%
%TF.FilePolarity,Positive*%
%TF.Part,Single*%
%TF.SameCoordinates,{8e856c1c-122a-437a-bfc2-24db689c5e76}*%
%FSLAX45Y45*%
%MOMM*%
G01*
%TA.AperFunction,Profile*%
%ADD21C,0.150000*%
%TA.AperFunction,Material*%
%ADD68C,0.050000*%
%ADD69C,0.762000*%
%ADD74C,0.645140*%
%ADD30C,0.150000*%
%ADD75C,0.711200*%
%ADD76C,0.177800*%
%ADD77C,0.721360*%
%ADD78C,0.112140*%
%ADD79C,0.812800*%
%ADD80C,0.097810*%
%ADD81C,0.579120*%
%ADD82C,0.077840*%
%ADD83C,0.843280*%
%ADD84C,0.169110*%
%ADD85C,1.257300*%
%ADD86C,0.142540*%
%TD.AperFunction*%
D21*
X-2010000Y-2260000D02*
X+2040000Y-2260000D01*
X+2040000Y+2360000D01*
X-2010000Y+2360000D01*
X-2010000Y-2260000D01*
D68*
X+1687000Y-909000D02*
X-163000Y-909000D01*
X-163000Y+1541000D01*
X+1687000Y+1541000D01*
X+1687000Y-909000D01*
D69*
X+0Y+915000D02*
X+0Y+915000D01*
D74*
X+670257Y-264631D02*
X+992830Y-264631D01*
X+1057344Y-192053D01*
X+1057344Y+98263D01*
X+992830Y+170842D01*
X+670257Y+170842D01*
X+799286Y+461157D02*
X+670257Y+606315D01*
X+1057344Y+606315D01*
D30*
X-1378500Y-1171500D02*
X-1109500Y-1171500D01*
X-1109500Y-394500D01*
X-1378500Y-394500D01*
X-1378500Y-1171500D01*
D75*
X-1244000Y-1037000D02*
X-1244000Y-1037000D01*
D76*
X-1208440Y-737975D02*
X-1190660Y-757978D01*
X-1190660Y-817985D01*
X-1226220Y-857990D01*
X-1261780Y-857990D01*
X-1297340Y-817985D01*
X-1297340Y-757978D01*
X-1279560Y-737975D01*
X-1261780Y-577955D02*
X-1244000Y-597958D01*
X-1244000Y-657965D01*
X-1261780Y-677968D01*
X-1279560Y-677968D01*
X-1297340Y-657965D01*
X-1297340Y-597958D01*
X-1279560Y-577955D01*
X-1208440Y-577955D01*
X-1190660Y-597958D01*
X-1190660Y-657965D01*
D30*
X+545500Y-1912500D02*
X+814500Y-1912500D01*
X+814500Y-1135500D01*
X+545500Y-1135500D01*
X+545500Y-1912500D01*
D75*
X+680000Y-1778000D02*
X+680000Y-1778000D01*
D76*
X+715560Y-1558985D02*
X+733340Y-1578988D01*
X+733340Y-1638995D01*
X+697780Y-1679000D01*
X+662220Y-1679000D01*
X+626660Y-1638995D01*
X+626660Y-1578988D01*
X+644440Y-1558985D01*
X+662220Y-1478975D02*
X+626660Y-1438970D01*
X+733340Y-1438970D01*
X+715560Y-1358960D02*
X+644440Y-1358960D01*
X+626660Y-1338958D01*
X+626660Y-1258948D01*
X+644440Y-1238945D01*
X+715560Y-1238945D01*
X+733340Y-1258948D01*
X+733340Y-1338958D01*
X+715560Y-1358960D01*
X+733340Y-1358960D02*
X+626660Y-1238945D01*
D68*
X-1475000Y-1005000D02*
X-1475000Y-535000D01*
X-1705000Y-535000D01*
X-1705000Y-1005000D01*
X-1475000Y-1005000D01*
X-1640000Y-770000D02*
X-1540000Y-770000D01*
X-1590000Y-720000D02*
X-1590000Y-820000D01*
D77*
X-1590000Y-920000D02*
X-1590000Y-920000D01*
D78*
X-1567571Y-733449D02*
X-1556356Y-746065D01*
X-1556356Y-783913D01*
X-1578785Y-809145D01*
X-1601214Y-809145D01*
X-1623643Y-783913D01*
X-1623643Y-746065D01*
X-1612428Y-733449D01*
X-1612428Y-695600D02*
X-1623643Y-682984D01*
X-1623643Y-645136D01*
X-1612428Y-632520D01*
X-1601214Y-632520D01*
X-1590000Y-645136D01*
X-1578785Y-632520D01*
X-1567571Y-632520D01*
X-1556356Y-645136D01*
X-1556356Y-682984D01*
X-1567571Y-695600D01*
X-1590000Y-670368D02*
X-1590000Y-645136D01*
D68*
X+965000Y-1155000D02*
X+965000Y-1625000D01*
X+1195000Y-1625000D01*
X+1195000Y-1155000D01*
X+965000Y-1155000D01*
X+1130000Y-1390000D02*
X+1030000Y-1390000D01*
X+1080000Y-1440000D02*
X+1080000Y-1340000D01*
D77*
X+1080000Y-1240000D02*
X+1080000Y-1240000D01*
D78*
X+1102429Y-1477017D02*
X+1113644Y-1489633D01*
X+1113644Y-1527481D01*
X+1091215Y-1552713D01*
X+1068786Y-1552713D01*
X+1046357Y-1527481D01*
X+1046357Y-1489633D01*
X+1057572Y-1477017D01*
X+1091215Y-1376088D02*
X+1091215Y-1451784D01*
X+1046357Y-1401320D01*
X+1113644Y-1401320D01*
D30*
X-1842500Y+595500D02*
X-1065500Y+595500D01*
X-1065500Y+864500D01*
X-1842500Y+864500D01*
X-1842500Y+595500D01*
D79*
X-1708000Y+730000D02*
X-1708000Y+730000D01*
D80*
X-1630517Y+710438D02*
X-1619514Y+700657D01*
X-1575499Y+700657D01*
X-1564496Y+710438D01*
X-1564496Y+720219D01*
X-1575499Y+730000D01*
X-1619514Y+730000D01*
X-1630517Y+739781D01*
X-1630517Y+749562D01*
X-1619514Y+759343D01*
X-1575499Y+759343D01*
X-1564496Y+749562D01*
X-1542488Y+759343D02*
X-1542488Y+700657D01*
X-1509478Y+730000D01*
X-1476467Y+700657D01*
X-1476467Y+759343D01*
X-1443456Y+759343D02*
X-1399441Y+759343D01*
X-1421449Y+759343D02*
X-1421449Y+700657D01*
X-1443456Y+700657D02*
X-1399441Y+700657D01*
X-1366430Y+759343D02*
X-1300409Y+759343D01*
X-1333420Y+759343D02*
X-1333420Y+700657D01*
X-1212380Y+710438D02*
X-1223383Y+700657D01*
X-1256394Y+700657D01*
X-1278401Y+720219D01*
X-1278401Y+739781D01*
X-1256394Y+759343D01*
X-1223383Y+759343D01*
X-1212380Y+749562D01*
X-1190372Y+700657D02*
X-1190372Y+759343D01*
X-1124351Y+759343D02*
X-1124351Y+700657D01*
X-1190372Y+730000D02*
X-1124351Y+730000D01*
D30*
X-1191500Y+1197500D02*
X-414500Y+1197500D01*
X-414500Y+1466500D01*
X-1191500Y+1466500D01*
X-1191500Y+1197500D01*
D75*
X-1057000Y+1332000D02*
X-1057000Y+1332000D01*
D76*
X-757975Y+1296440D02*
X-777978Y+1278660D01*
X-837985Y+1278660D01*
X-877990Y+1314220D01*
X-877990Y+1349780D01*
X-837985Y+1385340D01*
X-777978Y+1385340D01*
X-757975Y+1367560D01*
X-677965Y+1349780D02*
X-637960Y+1385340D01*
X-637960Y+1278660D01*
D68*
X-1800000Y+1007000D02*
X-1330000Y+1007000D01*
X-1330000Y+1237000D01*
X-1800000Y+1237000D01*
X-1800000Y+1007000D01*
X-1565000Y+1172000D02*
X-1565000Y+1072000D01*
X-1515000Y+1122000D02*
X-1615000Y+1122000D01*
D77*
X-1715000Y+1122000D02*
X-1715000Y+1122000D01*
D78*
X-1528449Y+1099571D02*
X-1541065Y+1088356D01*
X-1578913Y+1088356D01*
X-1604145Y+1110785D01*
X-1604145Y+1133214D01*
X-1578913Y+1155643D01*
X-1541065Y+1155643D01*
X-1528449Y+1144428D01*
X-1427520Y+1155643D02*
X-1490600Y+1155643D01*
X-1490600Y+1133214D01*
X-1440136Y+1133214D01*
X-1427520Y+1122000D01*
X-1427520Y+1099571D01*
X-1440136Y+1088356D01*
X-1477984Y+1088356D01*
X-1490600Y+1099571D01*
D30*
X-1694500Y-2012500D02*
X-1425500Y-2012500D01*
X-1425500Y-1235500D01*
X-1694500Y-1235500D01*
X-1694500Y-2012500D01*
D75*
X-1560000Y-1370000D02*
X-1560000Y-1370000D01*
D76*
X-1524440Y-1749035D02*
X-1506660Y-1769038D01*
X-1506660Y-1829045D01*
X-1542220Y-1869050D01*
X-1577780Y-1869050D01*
X-1613340Y-1829045D01*
X-1613340Y-1769038D01*
X-1595560Y-1749035D01*
X-1595560Y-1689028D02*
X-1613340Y-1669025D01*
X-1613340Y-1609018D01*
X-1595560Y-1589015D01*
X-1577780Y-1589015D01*
X-1560000Y-1609018D01*
X-1560000Y-1669025D01*
X-1542220Y-1689028D01*
X-1506660Y-1689028D01*
X-1506660Y-1589015D01*
D68*
X+1691000Y-1264000D02*
X+1691000Y-1614000D01*
X+1891000Y-1614000D01*
X+1891000Y-1264000D01*
X+1691000Y-1264000D01*
X+1841000Y-1439000D02*
X+1741000Y-1439000D01*
X+1791000Y-1489000D02*
X+1791000Y-1389000D01*
D81*
X+1791000Y-1339000D02*
X+1791000Y-1339000D01*
D82*
X+1814355Y-1562291D02*
X+1767646Y-1562291D01*
X+1767646Y-1518502D01*
X+1775431Y-1509744D01*
X+1783216Y-1509744D01*
X+1791000Y-1518502D01*
X+1791000Y-1562291D01*
X+1791000Y-1518502D02*
X+1798785Y-1509744D01*
X+1814355Y-1509744D01*
X+1775431Y-1483471D02*
X+1767646Y-1474713D01*
X+1767646Y-1448439D01*
X+1775431Y-1439681D01*
X+1783216Y-1439681D01*
X+1791000Y-1448439D01*
X+1791000Y-1474713D01*
X+1798785Y-1483471D01*
X+1814355Y-1483471D01*
X+1814355Y-1439681D01*
D68*
X-1087000Y-1936000D02*
X-1087000Y-1586000D01*
X-1287000Y-1586000D01*
X-1287000Y-1936000D01*
X-1087000Y-1936000D01*
X-1237000Y-1761000D02*
X-1137000Y-1761000D01*
X-1187000Y-1711000D02*
X-1187000Y-1811000D01*
D81*
X-1187000Y-1861000D02*
X-1187000Y-1861000D01*
D82*
X-1163645Y-1777835D02*
X-1210354Y-1777835D01*
X-1210354Y-1734046D01*
X-1202569Y-1725288D01*
X-1194784Y-1725288D01*
X-1187000Y-1734046D01*
X-1187000Y-1777835D01*
X-1187000Y-1734046D02*
X-1179215Y-1725288D01*
X-1163645Y-1725288D01*
X-1179215Y-1655225D02*
X-1179215Y-1707772D01*
X-1210354Y-1672741D01*
X-1163645Y-1672741D01*
D68*
X+1336000Y-1264000D02*
X+1336000Y-1614000D01*
X+1536000Y-1614000D01*
X+1536000Y-1264000D01*
X+1336000Y-1264000D01*
X+1486000Y-1439000D02*
X+1386000Y-1439000D01*
X+1436000Y-1489000D02*
X+1436000Y-1389000D01*
D81*
X+1436000Y-1339000D02*
X+1436000Y-1339000D01*
D82*
X+1459355Y-1562291D02*
X+1412646Y-1562291D01*
X+1412646Y-1518502D01*
X+1420431Y-1509744D01*
X+1428216Y-1509744D01*
X+1436000Y-1518502D01*
X+1436000Y-1562291D01*
X+1436000Y-1518502D02*
X+1443785Y-1509744D01*
X+1459355Y-1509744D01*
X+1412646Y-1439681D02*
X+1412646Y-1483471D01*
X+1428216Y-1483471D01*
X+1428216Y-1448439D01*
X+1436000Y-1439681D01*
X+1451570Y-1439681D01*
X+1459355Y-1448439D01*
X+1459355Y-1474713D01*
X+1451570Y-1483471D01*
D68*
X+354000Y-1918000D02*
X+354000Y-1568000D01*
X+154000Y-1568000D01*
X+154000Y-1918000D01*
X+354000Y-1918000D01*
X+204000Y-1743000D02*
X+304000Y-1743000D01*
X+254000Y-1693000D02*
X+254000Y-1793000D01*
D81*
X+254000Y-1843000D02*
X+254000Y-1843000D01*
D82*
X+277355Y-1794866D02*
X+230646Y-1794866D01*
X+230646Y-1751077D01*
X+238431Y-1742319D01*
X+246216Y-1742319D01*
X+254000Y-1751077D01*
X+254000Y-1794866D01*
X+254000Y-1751077D02*
X+261785Y-1742319D01*
X+277355Y-1742319D01*
X+246216Y-1707288D02*
X+230646Y-1689772D01*
X+277355Y-1689772D01*
X+269570Y-1654740D02*
X+238431Y-1654740D01*
X+230646Y-1645983D01*
X+230646Y-1610951D01*
X+238431Y-1602193D01*
X+269570Y-1602193D01*
X+277355Y-1610951D01*
X+277355Y-1645983D01*
X+269570Y-1654740D01*
X+277355Y-1654740D02*
X+230646Y-1602193D01*
D68*
X-450000Y-1385000D02*
X+260000Y-1385000D01*
X+260000Y-955000D01*
X-450000Y-955000D01*
X-450000Y-1385000D01*
X-95000Y-1120000D02*
X-95000Y-1220000D01*
X-45000Y-1170000D02*
X-145000Y-1170000D01*
D83*
X-320000Y-1170000D02*
X-320000Y-1170000D01*
D84*
X-159868Y-1220734D02*
X-159868Y-1119267D01*
X-83768Y-1119267D01*
X-45718Y-1153089D01*
X-45718Y-1186912D01*
X-83768Y-1220734D01*
X-159868Y-1220734D01*
X+106482Y-1186912D02*
X-7668Y-1186912D01*
X+68432Y-1119267D01*
X+68432Y-1220734D01*
D68*
X-591000Y-1615000D02*
X-591000Y-1015000D01*
X-981000Y-1015000D01*
X-981000Y-1615000D01*
X-591000Y-1615000D01*
X-836000Y-1315000D02*
X-736000Y-1315000D01*
X-786000Y-1265000D02*
X-786000Y-1365000D01*
D85*
X-786000Y-1520000D02*
X-786000Y-1520000D01*
D86*
X-828764Y-1363108D02*
X-743237Y-1363108D01*
X-743237Y-1266891D01*
X-800255Y-1202746D02*
X-828764Y-1170673D01*
X-743237Y-1170673D01*
D68*
X+340000Y+1345000D02*
X+340000Y+995000D01*
X+540000Y+995000D01*
X+540000Y+1345000D01*
X+340000Y+1345000D01*
X+490000Y+1170000D02*
X+390000Y+1170000D01*
X+440000Y+1120000D02*
X+440000Y+1220000D01*
D81*
X+440000Y+1270000D02*
X+440000Y+1270000D01*
D82*
X+463355Y+1046709D02*
X+416646Y+1046709D01*
X+416646Y+1090498D01*
X+424431Y+1099256D01*
X+432216Y+1099256D01*
X+440000Y+1090498D01*
X+440000Y+1046709D01*
X+440000Y+1090498D02*
X+447785Y+1099256D01*
X+463355Y+1099256D01*
X+424431Y+1125529D02*
X+416646Y+1134287D01*
X+416646Y+1160561D01*
X+424431Y+1169319D01*
X+432216Y+1169319D01*
X+440000Y+1160561D01*
X+447785Y+1169319D01*
X+455570Y+1169319D01*
X+463355Y+1160561D01*
X+463355Y+1134287D01*
X+455570Y+1125529D01*
X+440000Y+1143045D02*
X+440000Y+1160561D01*
D68*
X+970000Y+1346000D02*
X+970000Y+996000D01*
X+1170000Y+996000D01*
X+1170000Y+1346000D01*
X+970000Y+1346000D01*
X+1120000Y+1171000D02*
X+1020000Y+1171000D01*
X+1070000Y+1121000D02*
X+1070000Y+1221000D01*
D81*
X+1070000Y+1271000D02*
X+1070000Y+1271000D01*
D82*
X+1093355Y+1047709D02*
X+1046646Y+1047709D01*
X+1046646Y+1091498D01*
X+1054431Y+1100256D01*
X+1062216Y+1100256D01*
X+1070000Y+1091498D01*
X+1070000Y+1047709D01*
X+1070000Y+1091498D02*
X+1077785Y+1100256D01*
X+1093355Y+1100256D01*
X+1070000Y+1135287D02*
X+1062216Y+1126529D01*
X+1054431Y+1126529D01*
X+1046646Y+1135287D01*
X+1046646Y+1161561D01*
X+1054431Y+1170319D01*
X+1062216Y+1170319D01*
X+1070000Y+1161561D01*
X+1070000Y+1135287D01*
X+1077785Y+1126529D01*
X+1085570Y+1126529D01*
X+1093355Y+1135287D01*
X+1093355Y+1161561D01*
X+1085570Y+1170319D01*
X+1077785Y+1170319D01*
X+1070000Y+1161561D01*
D68*
X+1700000Y-85000D02*
X+1700000Y-435000D01*
X+1900000Y-435000D01*
X+1900000Y-85000D01*
X+1700000Y-85000D01*
X+1850000Y-260000D02*
X+1750000Y-260000D01*
X+1800000Y-310000D02*
X+1800000Y-210000D01*
D81*
X+1800000Y-160000D02*
X+1800000Y-160000D01*
D82*
X+1823355Y-383291D02*
X+1776646Y-383291D01*
X+1776646Y-339502D01*
X+1784431Y-330744D01*
X+1792216Y-330744D01*
X+1800000Y-339502D01*
X+1800000Y-383291D01*
X+1800000Y-339502D02*
X+1807785Y-330744D01*
X+1823355Y-330744D01*
X+1792216Y-260681D02*
X+1800000Y-269439D01*
X+1800000Y-295713D01*
X+1792216Y-304471D01*
X+1784431Y-304471D01*
X+1776646Y-295713D01*
X+1776646Y-269439D01*
X+1784431Y-260681D01*
X+1815570Y-260681D01*
X+1823355Y-269439D01*
X+1823355Y-295713D01*
D68*
X-1365000Y+1530000D02*
X-1015000Y+1530000D01*
X-1015000Y+1730000D01*
X-1365000Y+1730000D01*
X-1365000Y+1530000D01*
X-1190000Y+1680000D02*
X-1190000Y+1580000D01*
X-1140000Y+1630000D02*
X-1240000Y+1630000D01*
D81*
X-1290000Y+1630000D02*
X-1290000Y+1630000D01*
D82*
X-1206835Y+1606645D02*
X-1206835Y+1653354D01*
X-1163046Y+1653354D01*
X-1154288Y+1645569D01*
X-1154288Y+1637784D01*
X-1163046Y+1630000D01*
X-1206835Y+1630000D01*
X-1163046Y+1630000D02*
X-1154288Y+1622215D01*
X-1154288Y+1606645D01*
X-1119257Y+1637784D02*
X-1101741Y+1653354D01*
X-1101741Y+1606645D01*
D68*
X-680000Y+1725000D02*
X-680000Y+2075000D01*
X-880000Y+2075000D01*
X-880000Y+1725000D01*
X-680000Y+1725000D01*
X-830000Y+1900000D02*
X-730000Y+1900000D01*
X-780000Y+1950000D02*
X-780000Y+1850000D01*
D81*
X-780000Y+1800000D02*
X-780000Y+1800000D01*
D82*
X-756645Y+1883165D02*
X-803354Y+1883165D01*
X-803354Y+1926954D01*
X-795569Y+1935712D01*
X-787784Y+1935712D01*
X-780000Y+1926954D01*
X-780000Y+1883165D01*
X-780000Y+1926954D02*
X-772215Y+1935712D01*
X-756645Y+1935712D01*
X-795569Y+2005775D02*
X-803354Y+1997017D01*
X-803354Y+1970743D01*
X-795569Y+1961985D01*
X-764430Y+1961985D01*
X-756645Y+1970743D01*
X-756645Y+1997017D01*
X-764430Y+2005775D01*
X-772215Y+2005775D01*
X-780000Y+1997017D01*
X-780000Y+1961985D01*
D68*
X-1065000Y+2110000D02*
X-1415000Y+2110000D01*
X-1415000Y+1910000D01*
X-1065000Y+1910000D01*
X-1065000Y+2110000D01*
X-1240000Y+1960000D02*
X-1240000Y+2060000D01*
X-1290000Y+2010000D02*
X-1190000Y+2010000D01*
D81*
X-1140000Y+2010000D02*
X-1140000Y+2010000D01*
D82*
X-1363291Y+1986645D02*
X-1363291Y+2033354D01*
X-1319502Y+2033354D01*
X-1310744Y+2025569D01*
X-1310744Y+2017784D01*
X-1319502Y+2010000D01*
X-1363291Y+2010000D01*
X-1319502Y+2010000D02*
X-1310744Y+2002215D01*
X-1310744Y+1986645D01*
X-1284471Y+2033354D02*
X-1240681Y+2033354D01*
X-1240681Y+2025569D01*
X-1284471Y+1986645D01*
D21*
X+1790312Y-1930000D02*
X+1789777Y-1916917D01*
X+1785433Y-1890749D01*
X+1776357Y-1864581D01*
X+1761574Y-1838413D01*
X+1738960Y-1812409D01*
X+1712792Y-1792721D01*
X+1686624Y-1780021D01*
X+1660456Y-1772608D01*
X+1634288Y-1769745D01*
X+1630000Y-1769688D01*
X+1469688Y-1930000D02*
X+1470223Y-1916917D01*
X+1474567Y-1890749D01*
X+1483643Y-1864581D01*
X+1498426Y-1838413D01*
X+1521040Y-1812409D01*
X+1547208Y-1792721D01*
X+1573376Y-1780021D01*
X+1599544Y-1772608D01*
X+1625712Y-1769745D01*
X+1630000Y-1769688D01*
X+1469688Y-1930000D02*
X+1470223Y-1943083D01*
X+1474567Y-1969251D01*
X+1483643Y-1995419D01*
X+1498426Y-2021587D01*
X+1521040Y-2047591D01*
X+1547208Y-2067279D01*
X+1573376Y-2079979D01*
X+1599544Y-2087392D01*
X+1625712Y-2090255D01*
X+1630000Y-2090312D01*
X+1790312Y-1930000D02*
X+1789777Y-1943083D01*
X+1785433Y-1969251D01*
X+1776357Y-1995419D01*
X+1761574Y-2021587D01*
X+1738960Y-2047591D01*
X+1712792Y-2067279D01*
X+1686624Y-2079979D01*
X+1660456Y-2087392D01*
X+1634288Y-2090255D01*
X+1630000Y-2090312D01*
D30*
X-1834500Y+1455500D02*
X-1565500Y+1455500D01*
X-1565500Y+2232500D01*
X-1834500Y+2232500D01*
X-1834500Y+1455500D01*
D79*
X-1700000Y+1590000D02*
X-1700000Y+1590000D01*
D68*
X-790000Y-1995000D02*
X-790000Y-1645000D01*
X-990000Y-1645000D01*
X-990000Y-1995000D01*
X-790000Y-1995000D01*
X-940000Y-1820000D02*
X-840000Y-1820000D01*
X-890000Y-1770000D02*
X-890000Y-1870000D01*
D81*
X-890000Y-1920000D02*
X-890000Y-1920000D01*
M02*
