G04 PROTEUS GERBER X2 FILE*
%TF.GenerationSoftware,Labcenter,Proteus,8.17-SP2-Build37159*%
%TF.CreationDate,2024-05-15T18:34:46+00:00*%
%TF.FileFunction,Soldermask,Bot*%
%TF.FilePolarity,Negative*%
%TF.Part,Single*%
%TF.SameCoordinates,{2fb43601-861e-418b-a464-66e3711116c9}*%
%FSLAX45Y45*%
%MOMM*%
G01*
%TA.AperFunction,Material*%
%ADD30C,1.016000*%
%AMPPAD025*
4,1,36,
1.016000,-1.143000,
-1.016000,-1.143000,
-1.041590,-1.140420,
-1.065430,-1.133020,
-1.087000,-1.121310,
-1.105800,-1.105800,
-1.121310,-1.087000,
-1.133020,-1.065430,
-1.140420,-1.041590,
-1.143000,-1.016000,
-1.143000,1.016000,
-1.140420,1.041590,
-1.133020,1.065430,
-1.121310,1.087000,
-1.105800,1.105800,
-1.087000,1.121310,
-1.065430,1.133020,
-1.041590,1.140420,
-1.016000,1.143000,
1.016000,1.143000,
1.041590,1.140420,
1.065430,1.133020,
1.087000,1.121310,
1.105800,1.105800,
1.121310,1.087000,
1.133020,1.065430,
1.140420,1.041590,
1.143000,1.016000,
1.143000,-1.016000,
1.140420,-1.041590,
1.133020,-1.065430,
1.121310,-1.087000,
1.105800,-1.105800,
1.087000,-1.121310,
1.065430,-1.133020,
1.041590,-1.140420,
1.016000,-1.143000,
0*%
%TA.AperFunction,Material*%
%ADD31PPAD025*%
%TA.AperFunction,Material*%
%ADD32C,2.032000*%
%TA.AperFunction,Material*%
%ADD37C,3.708000*%
%TA.AperFunction,Material*%
%ADD38C,2.540000*%
%TA.AperFunction,Profile*%
%ADD25C,0.150000*%
%TD.AperFunction*%
D30*
X-2993767Y+2124458D03*
X-3429625Y+1894004D03*
X+2743200Y-2057400D03*
X+270000Y-2266382D03*
X+770000Y+820000D03*
X+1131568Y+1468339D03*
X+1131568Y+1761768D03*
X+2773356Y-2784537D03*
X-1890000Y+297250D03*
X-1830000Y-649750D03*
X+2264912Y-190362D03*
X+2617000Y+1030000D03*
X+2800000Y+1030000D03*
X+2983000Y+1030000D03*
X+2983000Y+847000D03*
X+2800000Y+847000D03*
X+2617000Y+847000D03*
X+2617000Y+1214000D03*
X+2800000Y+1214000D03*
X+2983000Y+1214000D03*
X+144969Y-649750D03*
X-1075001Y-2115986D03*
X+2200000Y-1660000D03*
X+3581400Y-1752600D03*
X-531760Y-151955D03*
X+100000Y+250000D03*
X-1270000Y-1920000D03*
X-1642857Y-1928682D03*
X+3335833Y+884568D03*
X+4517440Y+1271372D03*
X+2566577Y+1446094D03*
X-3468191Y+73202D03*
X-3534596Y+1146753D03*
X+820000Y+1800000D03*
X+2506843Y+1601922D03*
X+4092025Y+1543909D03*
X+1695747Y-2741132D03*
X+1697730Y+632350D03*
X-1393488Y-162294D03*
X+2551677Y-1663344D03*
X+2439493Y+536679D03*
X+1381200Y+752400D03*
X+1300000Y-2550000D03*
X+583319Y-2265055D03*
X+4518775Y+2037039D03*
X+3507792Y+755111D03*
X+4596834Y+1130800D03*
X+4010000Y+500000D03*
X+4647651Y+942405D03*
X+2225625Y+499828D03*
X+2550000Y+240000D03*
X+3114606Y+615904D03*
X+4653570Y+556296D03*
X-2790000Y-492750D03*
X+4098734Y+764000D03*
X+2965539Y-1350000D03*
X+2898209Y-2241791D03*
X+4197137Y-137137D03*
X+3743801Y-141599D03*
X+4198864Y+365321D03*
X+4643200Y+275790D03*
X+3303314Y-1868830D03*
X-320000Y-340000D03*
D31*
X+422000Y-2642750D03*
X+168000Y-2642750D03*
X-86000Y-2642750D03*
X-340000Y-2642750D03*
X-594000Y-2642750D03*
X-4029000Y+1645250D03*
X-4029000Y+1899250D03*
X-4029000Y+2153250D03*
X-4029000Y+2407250D03*
D32*
X+3770000Y-714750D03*
X+3770000Y-1222750D03*
X-2075000Y-1157750D03*
X-2075000Y-649750D03*
X-2111000Y+395250D03*
X-2111000Y-112750D03*
D31*
X+4028000Y-2636750D03*
X+4282000Y-2636750D03*
X+4536000Y-2636750D03*
X+4990000Y-2626750D03*
X+4990000Y-2372750D03*
D37*
X-3100000Y+2607250D03*
X-3100000Y-1812750D03*
X+4490000Y+2607250D03*
X+4500000Y-1812750D03*
D38*
X-4170000Y-172750D03*
X-4170000Y+527250D03*
X-3720000Y-172750D03*
X-3720000Y+527250D03*
X-4165000Y-1547750D03*
X-4165000Y-847750D03*
X-3715000Y-1547750D03*
X-3715000Y-847750D03*
D32*
X+2770000Y-1062750D03*
X+2262000Y-1062750D03*
D31*
X-3100000Y+781250D03*
X-3100000Y+527250D03*
X-3100000Y+273250D03*
X-3100000Y+19250D03*
X-2490000Y-2622750D03*
X-2236000Y-2622750D03*
X-1982000Y-2622750D03*
X-1728000Y-2622750D03*
X-1474000Y-2622750D03*
X-1220000Y-2622750D03*
X+4990000Y-1214000D03*
X+4990000Y-960000D03*
X+4990000Y-706000D03*
X+4990000Y-452000D03*
X+4990000Y-198000D03*
X+4990000Y+56000D03*
X+4990000Y+310000D03*
X+4990000Y+564000D03*
X+4990000Y+818000D03*
X+4990000Y+1072000D03*
X+4990000Y+1326000D03*
X+4990000Y+1580000D03*
X+4990000Y+2090000D03*
X+4990000Y+1836000D03*
D25*
X-4465000Y-3152750D02*
X+5305000Y-3152750D01*
X+5305000Y+3017250D01*
X-4465000Y+3017250D01*
X-4465000Y-3152750D01*
M02*
